<svg width="46" height="46" viewBox="0 0 46 46" fill="none" xmlns="http://www.w3.org/2000/svg">
<g clip-path="url(#clip0_358_79)">
<path d="M10.6279 -0.5C12.4308 -0.5 14.0808 -0.0671472 15.5869 0.795898C17.0955 1.66034 18.3071 2.854 19.2256 4.38477L19.4277 4.7207L19.8018 4.60547C20.7007 4.32887 21.6448 4.12039 22.6348 3.98145C23.6263 3.84228 24.6272 3.77246 25.6367 3.77246C28.5268 3.77251 31.2367 4.32069 33.7705 5.41406C36.314 6.51162 38.5214 7.99893 40.3975 9.875C42.2737 11.7512 43.7608 13.9593 44.8584 16.5029C45.9518 19.0368 46.5 21.7466 46.5 24.6367C46.5 27.5268 45.9518 30.2367 44.8584 32.7705C43.7608 35.314 42.2736 37.5214 40.3975 39.3975C38.5214 41.2736 36.314 42.7608 33.7705 43.8584C31.2367 44.9518 28.5268 45.5 25.6367 45.5C22.7466 45.5 20.0368 44.9518 17.5029 43.8584C14.9593 42.7608 12.7512 41.2737 10.875 39.3975C8.99893 37.5214 7.51162 35.314 6.41406 32.7705C5.32069 30.2367 4.77251 27.5268 4.77246 24.6367C4.77246 23.6272 4.84228 22.6263 4.98145 21.6348C5.12039 20.6448 5.32887 19.7007 5.60547 18.8018L5.71973 18.4287L5.38574 18.2266C3.92728 17.3446 2.74758 16.1498 1.84473 14.6338C0.949256 13.1301 0.5 11.4646 0.5 9.62793C0.500111 6.80367 1.48115 4.4212 3.45117 2.45117C5.4212 0.481146 7.80367 -0.499889 10.6279 -0.5ZM20.3672 12.2695C19.2535 14.9841 17.6626 17.3385 15.5947 19.3369C13.5272 21.3348 11.1215 22.8378 8.37305 23.8467L8.0459 23.9668V24.6367C8.04598 29.5376 9.75217 33.7072 13.1592 37.1143C16.5662 40.5211 20.7359 42.2275 25.6367 42.2275C30.5376 42.2275 34.7072 40.5213 38.1143 37.1143C41.5213 33.7072 43.2275 29.5376 43.2275 24.6367C43.2275 23.7614 43.1724 22.9111 43.0625 22.0869C42.9506 21.2479 42.746 20.4355 42.4473 19.6514L42.291 19.2412L41.8633 19.3428C41.1341 19.5164 40.4057 19.6467 39.6777 19.7334C38.9513 19.8199 38.1875 19.8633 37.3867 19.8633C34.2207 19.8633 31.2326 19.1857 28.417 17.8301C25.5993 16.4734 23.2002 14.5793 21.2168 12.1436L20.6865 11.4912L20.3672 12.2695ZM19.2275 24.6025C19.8461 24.6026 20.3496 24.8105 20.7695 25.2305C21.1895 25.6504 21.3974 26.1539 21.3975 26.7725C21.3975 27.3912 21.1896 27.8954 20.7695 28.3154C20.3496 28.7352 19.846 28.9433 19.2275 28.9434C18.6088 28.9434 18.1046 28.7354 17.6846 28.3154C17.2646 27.8954 17.0566 27.3912 17.0566 26.7725C17.0567 26.154 17.2648 25.6504 17.6846 25.2305C18.1046 24.8104 18.6088 24.6025 19.2275 24.6025ZM32.0459 24.6025C32.6644 24.6026 33.168 24.8105 33.5879 25.2305C34.0078 25.6504 34.2158 26.1539 34.2158 26.7725C34.2158 27.3912 34.0079 27.8954 33.5879 28.3154C33.168 28.7353 32.6643 28.9433 32.0459 28.9434C31.4272 28.9434 30.9229 28.7354 30.5029 28.3154C30.0829 27.8954 29.875 27.3912 29.875 26.7725C29.8751 26.154 30.0831 25.6504 30.5029 25.2305C30.9229 24.8104 31.4272 24.6025 32.0459 24.6025ZM17.0039 9.30078C15.1344 10.3639 13.5033 11.739 12.1123 13.4229C10.7198 15.1085 9.67533 16.9965 8.97949 19.084L8.56641 20.3213L9.7002 19.6768C11.5698 18.6137 13.2017 17.2386 14.5928 15.5547C15.9852 13.8691 17.0298 11.981 17.7256 9.89355L18.1377 8.65527L17.0039 9.30078ZM25.6367 7.0459C25.1204 7.0459 24.6199 7.07316 24.1367 7.12891C23.6691 7.18286 23.1841 7.24561 22.6816 7.31738L21.9365 7.42383L22.3232 8.06934C23.8626 10.635 25.9534 12.6974 28.5869 14.252C31.2316 15.813 34.169 16.5908 37.3867 16.5908C37.9029 16.5908 38.4027 16.5635 38.8857 16.5078C39.3534 16.4539 39.8383 16.3901 40.3408 16.3184L41.0869 16.2119L40.6992 15.5664C39.1599 13.0009 37.069 10.9393 34.4355 9.38477C31.791 7.82382 28.8543 7.04596 25.6367 7.0459ZM10.6279 2.77246C8.71891 2.77257 7.08636 3.43708 5.76172 4.76172C4.43708 6.08636 3.77257 7.71891 3.77246 9.62793C3.77246 10.7383 4.02238 11.765 4.52734 12.6973C5.02126 13.6091 5.6693 14.3899 6.46875 15.0371L6.94141 15.4199L7.22461 14.8828C8.19816 13.04 9.42336 11.3794 10.9014 9.90137C12.3794 8.42336 14.04 7.19816 15.8828 6.22461L16.4199 5.94141L16.0371 5.46875C15.3899 4.6693 14.6091 4.02126 13.6973 3.52734C12.765 3.02238 11.7383 2.77246 10.6279 2.77246Z" fill="#050130" stroke="white"/>
</g>
<defs>
<clipPath id="clip0_358_79">
<rect width="46" height="46" fill="white"/>
</clipPath>
</defs>
</svg>
