<svg width="167" height="37" viewBox="0 0 167 37" fill="none" xmlns="http://www.w3.org/2000/svg">
<g opacity="0.6">
<path d="M0 18.312C0 25.8962 4.66105 29.7076 11.2138 29.7076C13.4132 29.7076 15.3888 29.3929 17.319 28.7215V23.9696C15.8818 24.6864 14.088 24.8717 12.6964 24.8717C8.38849 24.8717 5.91985 22.5779 5.91985 17.5532C5.91985 12.9726 8.56682 10.7277 12.518 10.7277C14.2699 10.7277 15.8853 10.9515 17.319 11.49V6.87092C15.7944 6.1541 13.9517 5.92682 12.067 5.92682C4.93029 5.92332 0 9.68923 0 18.312Z" fill="white"/>
<path d="M43.2222 29.4838H58.3837V25.1829H48.8238V19.6547H57.9781V15.6615H48.8238V10.406H58.3837V6.10162H43.2222V29.4838Z" fill="white"/>
<path d="M59.646 18.312C59.646 25.8962 64.307 29.7076 70.8598 29.7076C73.0592 29.7076 75.0348 29.3929 76.965 28.7215V23.9696C75.5278 24.6864 73.734 24.8717 72.3424 24.8717C68.0345 24.8717 65.5658 22.5779 65.5658 17.5532C65.5658 12.9726 68.2128 10.7277 72.164 10.7277C73.9159 10.7277 75.5313 10.9515 76.965 11.49V6.87092C75.4404 6.1541 73.5977 5.92682 71.713 5.92682C64.5763 5.92682 59.646 9.69272 59.646 18.3155V18.312Z" fill="white"/>
<path d="M20.4135 33.1203C19.4764 33.1203 18.6652 33.928 18.6652 34.9141C18.6652 35.9002 19.4274 36.617 20.4555 36.617C21.3541 36.617 22.1618 35.8127 22.1618 34.8686C22.1618 33.9246 21.3541 33.1168 20.41 33.1168L20.4135 33.1203Z" fill="white"/>
<path d="M93.7035 6.10162L84.8639 15.9307V6.10162H79.2553V29.4838H84.8639V19.1616L93.7035 29.4838H100.571L89.7558 17.5042L100.571 6.10162H93.7035Z" fill="white"/>
<path d="M26.9208 33.1203C26.0221 33.1203 25.2144 33.928 25.2144 34.9141C25.2144 35.9002 25.9767 36.617 26.9662 36.617C27.9558 36.617 28.7181 35.8127 28.7181 34.8686C28.7181 33.9246 27.9103 33.1168 26.9243 33.1168L26.9208 33.1203Z" fill="white"/>
<path d="M34.8267 14.9936H25.2144V6.10162H19.6093V29.4838H25.2144V19.7875H34.8267V29.4838H40.4738V6.10162H34.8267V14.9936Z" fill="white"/>
<path d="M164.326 19.4659L166.368 6.10162H158.976L157.906 13.3922L153.094 6.10162H144.779L156.35 23.8017H144.779V30.4069H165.347V23.9486L162.088 19.4659H164.326Z" fill="white"/>
<path d="M109.767 16.9902H102.48V35.2673H109.767V16.9902Z" fill="white"/>
<path d="M154.318 32.9525C153.248 32.9525 152.374 33.8232 152.374 34.8932C152.374 35.9631 153.248 36.7359 154.318 36.7359C155.388 36.7359 156.262 35.8652 156.262 34.8932C156.262 33.8232 155.388 32.9525 154.318 32.9525Z" fill="white"/>
<path d="M126.548 12.7593H129.946V20.6827H137.237V6.10162H126.548V12.7593Z" fill="white"/>
<path d="M102.48 12.7558H117.061V22.6303C117.061 23.2632 116.526 23.8017 115.844 23.8017H112.537V30.4069H115.844C120.561 30.4069 124.348 26.9102 124.348 22.5324V6.10162H102.477V12.7558H102.48Z" fill="white"/>
<path d="M137.786 3.30434L143.699 12.2663V0H137.786V3.30434Z" fill="white"/>
</g>
</svg>
