<svg width="167" height="37" viewBox="0 0 167 37" fill="none" xmlns="http://www.w3.org/2000/svg">
<g opacity="0.6">
<path d="M0 18.3119C0 25.8962 4.66105 29.7075 11.2138 29.7075C13.4132 29.7075 15.3888 29.3928 17.319 28.7215V23.9695C15.8818 24.6863 14.088 24.8717 12.6964 24.8717C8.38849 24.8717 5.91985 22.5779 5.91985 17.5532C5.91985 12.9725 8.56682 10.7277 12.518 10.7277C14.2699 10.7277 15.8853 10.9515 17.319 11.4899V6.87086C15.7944 6.15404 13.9517 5.92676 12.067 5.92676C4.93029 5.92326 0 9.68917 0 18.3119Z" fill="white"/>
<path d="M43.2227 29.4837H58.3842V25.1828H48.8243V19.6546H57.9786V15.6614H48.8243V10.406H58.3842V6.10156H43.2227V29.4837Z" fill="white"/>
<path d="M59.6465 18.3119C59.6465 25.8962 64.3075 29.7075 70.8603 29.7075C73.0597 29.7075 75.0353 29.3928 76.9654 28.7215V23.9695C75.5283 24.6863 73.7345 24.8717 72.3429 24.8717C68.035 24.8717 65.5663 22.5779 65.5663 17.5532C65.5663 12.9725 68.2133 10.7277 72.1645 10.7277C73.9164 10.7277 75.5318 10.9515 76.9654 11.4899V6.87086C75.4409 6.15404 73.5982 5.92676 71.7135 5.92676C64.5768 5.92676 59.6465 9.69266 59.6465 18.3154V18.3119Z" fill="white"/>
<path d="M20.4134 33.1202C19.4763 33.1202 18.665 33.9279 18.665 34.914C18.665 35.9 19.4273 36.6169 20.4553 36.6169C21.354 36.6169 22.1617 35.8126 22.1617 34.8685C22.1617 33.9244 21.354 33.1167 20.4099 33.1167L20.4134 33.1202Z" fill="white"/>
<path d="M93.7031 6.10156L84.8635 15.9307V6.10156H79.2549V29.4837H84.8635V19.1616L93.7031 29.4837H100.571L89.7554 17.5042L100.571 6.10156H93.7031Z" fill="white"/>
<path d="M26.9212 33.1202C26.0226 33.1202 25.2148 33.9279 25.2148 34.914C25.2148 35.9 25.9771 36.6169 26.9667 36.6169C27.9562 36.6169 28.7185 35.8126 28.7185 34.8685C28.7185 33.9244 27.9108 33.1167 26.9247 33.1167L26.9212 33.1202Z" fill="white"/>
<path d="M34.8268 14.9936H25.2145V6.10156H19.6094V29.4837H25.2145V19.7875H34.8268V29.4837H40.4739V6.10156H34.8268V14.9936Z" fill="white"/>
<path d="M164.326 19.4658L166.368 6.10156H158.976L157.906 13.3921L153.094 6.10156H144.779L156.35 23.8017H144.779V30.4068H165.347V23.9485L162.088 19.4658H164.326Z" fill="white"/>
<path d="M109.768 16.9902H102.48V35.2673H109.768V16.9902Z" fill="white"/>
<path d="M154.318 32.9526C153.248 32.9526 152.374 33.8233 152.374 34.8933C152.374 35.9633 153.248 36.736 154.318 36.736C155.388 36.736 156.262 35.8654 156.262 34.8933C156.262 33.8233 155.388 32.9526 154.318 32.9526Z" fill="white"/>
<path d="M126.548 12.7592H129.947V20.6826H137.237V6.10156H126.548V12.7592Z" fill="white"/>
<path d="M102.48 12.7557H117.061V22.6303C117.061 23.2632 116.526 23.8017 115.844 23.8017H112.536V30.4068H115.844C120.561 30.4068 124.348 26.9102 124.348 22.5324V6.10156H102.477V12.7557H102.48Z" fill="white"/>
<path d="M137.786 3.30434L143.699 12.2663V0H137.786V3.30434Z" fill="white"/>
</g>
</svg>
