<svg width="266" height="59" viewBox="0 0 266 59" fill="none" xmlns="http://www.w3.org/2000/svg">
<path d="M0 29.2783C0 41.4046 7.4524 47.4984 17.9294 47.4984C21.4459 47.4984 24.6047 46.9953 27.6907 45.9219V38.3241C25.393 39.4702 22.5249 39.7665 20.2998 39.7665C13.4121 39.7665 9.46506 36.099 9.46506 28.0652C9.46506 20.7413 13.6972 17.1521 20.0147 17.1521C22.8157 17.1521 25.3986 17.5099 27.6907 18.3709V10.9856C25.2532 9.83947 22.3069 9.47608 19.2935 9.47608C7.88289 9.47049 0 15.4917 0 29.2783Z" fill="#E3F0FA"/>
<path d="M69.1064 47.1409H93.3477V40.2643H78.0628V31.4254H92.6992V25.0408H78.0628V16.638H93.3477V9.75586H69.1064V47.1409Z" fill="#E3F0FA"/>
<path d="M95.3662 29.2783C95.3662 41.4046 102.819 47.4984 113.296 47.4984C116.812 47.4984 119.971 46.9953 123.057 45.9219V38.3241C120.759 39.4702 117.891 39.7665 115.666 39.7665C108.778 39.7665 104.831 36.099 104.831 28.0652C104.831 20.7413 109.063 17.1521 115.381 17.1521C118.182 17.1521 120.765 17.5099 123.057 18.3709V10.9856C120.619 9.83947 117.673 9.47607 114.66 9.47607C103.249 9.47607 95.3662 15.4973 95.3662 29.2839V29.2783Z" fill="#E3F0FA"/>
<path d="M32.6381 52.9553C31.1398 52.9553 29.8428 54.2467 29.8428 55.8233C29.8428 57.3999 31.0615 58.546 32.7052 58.546C34.142 58.546 35.4335 57.2601 35.4335 55.7506C35.4335 54.2412 34.142 52.9497 32.6325 52.9497L32.6381 52.9553Z" fill="#E3F0FA"/>
<path d="M149.82 9.75586L135.686 25.4713V9.75586H126.719V47.1409H135.686V30.6371L149.82 47.1409H160.8L143.508 27.9871L160.8 9.75586H149.82Z" fill="#E3F0FA"/>
<path d="M43.0427 52.9553C41.6059 52.9553 40.3145 54.2467 40.3145 55.8233C40.3145 57.3999 41.5332 58.546 43.1154 58.546C44.6976 58.546 45.9163 57.2601 45.9163 55.7506C45.9163 54.2412 44.6249 52.9497 43.0483 52.9497L43.0427 52.9553Z" fill="#E3F0FA"/>
<path d="M55.6833 23.973H40.3144V9.75586H31.3525V47.1409H40.3144V31.6379H55.6833V47.1409H64.7122V9.75586H55.6833V23.973Z" fill="#E3F0FA"/>
<path d="M262.735 31.1235L266 9.75586H254.182L252.471 21.4125L244.778 9.75586H231.483L249.983 38.056H231.483V48.6168H264.368V38.2908L259.157 31.1235H262.735Z" fill="#E3F0FA"/>
<path d="M175.504 27.1655H163.853V56.3881H175.504V27.1655Z" fill="#E3F0FA"/>
<path d="M246.734 52.687C245.024 52.687 243.626 54.0791 243.626 55.7899C243.626 57.5006 245.024 58.7361 246.734 58.7361C248.445 58.7361 249.843 57.3441 249.843 55.7899C249.843 54.0791 248.445 52.687 246.734 52.687Z" fill="#E3F0FA"/>
<path d="M202.333 20.4006H207.767V33.0691H219.424V9.75586H202.333V20.4006Z" fill="#E3F0FA"/>
<path d="M163.852 20.395H187.165V36.1831C187.165 37.195 186.31 38.056 185.22 38.056H179.931V48.6168H185.22C192.762 48.6168 198.817 43.0261 198.817 36.0266V9.75586H163.847V20.395H163.852Z" fill="#E3F0FA"/>
<path d="M220.302 5.28321L229.756 19.6122V0H220.302V5.28321Z" fill="#E3F0FA"/>
</svg>
