<svg width="26" height="26" viewBox="0 0 26 26" fill="none" xmlns="http://www.w3.org/2000/svg">
<path d="M9.27167 9.16667C9.54596 8.38695 10.0873 7.72946 10.7999 7.31066C11.5126 6.89185 12.3504 6.73876 13.165 6.8785C13.9797 7.01823 14.7186 7.44178 15.2509 8.07412C15.7832 8.70645 16.0746 9.50678 16.0733 10.3333C16.0733 12.6667 12.5733 13.8333 12.5733 13.8333M12.6667 18.5H12.6783M24.3333 12.6667C24.3333 19.11 19.11 24.3333 12.6667 24.3333C6.22334 24.3333 1 19.11 1 12.6667C1 6.22334 6.22334 1 12.6667 1C19.11 1 24.3333 6.22334 24.3333 12.6667Z" stroke="#E3F0FA" stroke-width="2" stroke-linecap="round" stroke-linejoin="round"/>
</svg>
