<svg width="36" height="35" viewBox="0 0 36 35" fill="none" xmlns="http://www.w3.org/2000/svg">
<path d="M18 0C8.05821 0 0 7.83437 0 17.5C0 27.1656 8.05821 35 18 35C27.9418 35 36 27.1656 36 17.5C36 7.83437 27.9403 0 18 0ZM9.92513 27.5013C8.28533 27.5013 6.95592 26.3751 6.95592 24.987C6.95592 23.5988 8.28533 22.4727 9.92513 22.4727C11.5649 22.4727 12.8943 23.5988 12.8943 24.987C12.8943 26.3751 11.5649 27.5013 9.92513 27.5013ZM20.7088 26.9154H15.426V14.076H20.7088V26.9154ZM17.8819 12.6436C16.2421 12.6436 14.9127 11.5175 14.9127 10.1293C14.9127 8.74117 16.2421 7.61503 17.8819 7.61503C19.5217 7.61503 20.8511 8.74117 20.8511 10.1293C20.8511 11.5175 19.5217 12.6436 17.8819 12.6436ZM28.5868 26.9154H23.2586V8.4968H28.5868V26.9154Z" fill="#E3F0FA"/>
</svg>
