<svg width="185" height="320" viewBox="0 0 185 320" fill="none" xmlns="http://www.w3.org/2000/svg">
<path d="M125.348 0.448481L176.607 0.448486C181.912 0.433532 185 4.41019 185 8.82037C185 10.5844 184.565 12.3485 183.681 14.1126C181.478 16.7587 172.635 30.4228 169.547 34.3845L104.604 129.151C100.633 136.207 98.8639 137.089 94.4425 144.131L93.5582 145.013L90.4706 150.305C89.5863 151.187 88.7021 152.503 88.2674 153.833C85.6145 156.479 84.2956 160.007 82.527 164.851C82.0923 165.733 82.0923 167.049 82.0923 168.379C82.0923 171.025 82.9766 174.105 84.2956 175.869C84.2956 176.303 84.7302 176.303 84.7302 176.751L122.74 233.157C130.698 244.608 140.411 259.154 148.819 271.503C157.212 283.403 164.721 294.854 172.68 306.754C173.999 308.519 174.448 310.283 174.448 311.598C174.448 316.008 171.361 319.537 166.055 319.537L108.606 319.537C106.823 320 104.619 320 103.285 320C101.951 320 100.198 320 98.8639 319.566C96.211 319.566 93.1235 318.684 91.3549 316.038L40.9802 241.558C39.2116 239.361 37.0084 238.03 34.3555 238.03C31.7026 238.03 29.0498 239.346 27.7308 241.558L-8.49521 296.215C-12.0324 301.507 -19.0917 311.195 -22.1942 316.053C-23.9628 318.699 -26.6157 319.581 -29.2686 319.581C-31.0372 320 -32.3711 320 -33.69 320C-35.4586 320 -36.7776 320 -38.5461 319.566L-89.3555 319.566C-94.6613 319.566 -97.7488 315.605 -97.7488 311.195C-97.7488 309.43 -97.3141 307.666 -96.4298 305.902C-94.2266 303.256 -85.3837 289.592 -82.2961 285.63L-25.7464 201.448C-23.9778 199.251 -23.5431 197.487 -21.3249 194.84L-13.3663 182.94L-12.0473 180.294C-10.2788 178.097 -8.51016 173.687 -9.39446 169.71C-11.163 164.866 -12.482 161.338 -15.1349 158.692C-15.5695 157.81 -16.0192 156.928 -16.4538 156.494L-24.8471 143.712C-27.0503 140.633 -28.8189 138.868 -31.4718 134.01L-63.2913 86.8582C-71.25 75.4067 -80.9622 60.8605 -89.3705 48.512C-97.7637 36.612 -105.288 25.1605 -113.231 13.2604C-114.55 11.4964 -115 9.73227 -115 8.41669C-115 4.0065 -111.912 0.478368 -106.607 0.478368L-49.1576 0.478373C-47.389 0.0298869 -45.1858 0.0298871 -43.8519 0.0298872C-42.5179 0.0298873 -40.7644 0.029857 -39.4304 0.46342C-36.7775 0.463421 -33.69 1.34544 -31.9214 3.99156L32.1523 98.3097C33.9209 100.956 36.1241 101.838 38.777 101.838C41.4299 101.838 43.6331 100.956 45.4017 98.3097L95.3268 24.697L109.026 3.97662C110.794 1.33053 113.447 0.44848 116.1 0.44848C117.869 -5.8688e-06 119.188 -5.7535e-06 120.522 -5.63688e-06C122.29 -5.48227e-06 123.609 -5.36696e-06 125.378 0.433528L125.348 0.448481Z" fill="#E00615"/>
</svg>
