<svg width="27" height="29" viewBox="0 0 27 29" fill="none" xmlns="http://www.w3.org/2000/svg">
<path d="M21.6313 0.0406451L26.2446 0.0406455C26.7221 0.0392914 27 0.399675 27 0.799349C27 0.959217 26.9609 1.11909 26.8813 1.27896C26.683 1.51876 25.8871 2.75707 25.6093 3.11609L19.7644 11.7043C19.4069 12.3438 19.2478 12.4237 18.8498 13.0619L18.7702 13.1418L18.4924 13.6214C18.4128 13.7013 18.3332 13.8206 18.2941 13.9411C18.0553 14.1809 17.9366 14.5007 17.7774 14.9396C17.7383 15.0196 17.7383 15.1388 17.7383 15.2594C17.7383 15.4992 17.8179 15.7783 17.9366 15.9381C17.9366 15.9774 17.9757 15.9774 17.9757 16.0181L21.3966 21.1298C22.1129 22.1676 22.987 23.4859 23.7437 24.605C24.4991 25.6834 25.1749 26.7212 25.8912 27.7996C26.0099 27.9595 26.0504 28.1194 26.0504 28.2386C26.0504 28.6383 25.7725 28.958 25.295 28.958L20.1245 28.958C19.964 29 19.7657 29 19.6457 29C19.5256 29 19.3678 29 19.2478 28.9607C19.009 28.9607 18.7311 28.8808 18.5719 28.641L14.0382 21.8912C13.879 21.6921 13.6808 21.5715 13.442 21.5715C13.2032 21.5715 12.9645 21.6907 12.8458 21.8912L9.58543 26.8445C9.26708 27.3241 8.63174 28.202 8.35252 28.6423C8.19334 28.8821 7.95458 28.9621 7.71583 28.9621C7.55665 29 7.4366 29 7.31789 29C7.15872 29 7.04002 29 6.88085 28.9607L2.308 28.9607C1.83048 28.9607 1.55261 28.6017 1.55261 28.202C1.55261 28.0421 1.59172 27.8823 1.67131 27.7224C1.8696 27.4826 2.66547 26.2443 2.94334 25.8853L8.03282 18.2562C8.192 18.0571 8.23111 17.8972 8.43075 17.6574L9.14703 16.579L9.26574 16.3392C9.42491 16.14 9.58408 15.7403 9.5045 15.38C9.34532 14.941 9.22662 14.6213 8.98786 14.3815C8.94874 14.3015 8.90827 14.2216 8.86916 14.1823L8.11376 13.0239C7.91547 12.7448 7.7563 12.585 7.51754 12.1446L4.65378 7.87152C3.9375 6.83373 3.0634 5.51549 2.30666 4.3964C1.55126 3.31796 0.874102 2.28017 0.159174 1.20173C0.0404688 1.04186 5.50806e-07 0.88199 5.61229e-07 0.762765C5.96169e-07 0.363092 0.27788 0.0433536 0.755398 0.0433536L5.92581 0.0433541C6.08498 0.00271042 6.28327 0.00271044 6.40333 0.00271045C6.52338 0.00271046 6.68121 0.00270857 6.80126 0.0419981C7.04002 0.0419981 7.3179 0.121933 7.47707 0.361736L13.2437 8.90932C13.4029 9.14912 13.6012 9.22906 13.8399 9.22906C14.0787 9.22906 14.277 9.14912 14.4362 8.90932L18.9294 2.23817L20.1623 0.360383C20.3215 0.12058 20.5603 0.040645 20.799 0.0406451C20.9582 1.37916e-06 21.0769 1.38953e-06 21.1969 1.40003e-06C21.3561 1.41394e-06 21.4748 1.42432e-06 21.634 0.0392928L21.6313 0.0406451Z" fill="#E00615"/>
</svg>
