<svg width="227" height="227" viewBox="0 0 227 227" fill="none" xmlns="http://www.w3.org/2000/svg">
<path d="M66.2083 122.958H160.792V104.042H66.2083V122.958ZM113.5 208.083C100.416 208.083 88.1201 205.601 76.6125 200.635C65.1049 195.669 55.0948 188.93 46.5823 180.418C38.0698 171.905 31.3307 161.895 26.3651 150.388C21.3995 138.88 18.9167 126.584 18.9167 113.5C18.9167 100.416 21.3995 88.1201 26.3651 76.6125C31.3307 65.1049 38.0698 55.0948 46.5823 46.5823C55.0948 38.0698 65.1049 31.3307 76.6125 26.3651C88.1201 21.3995 100.416 18.9167 113.5 18.9167C126.584 18.9167 138.88 21.3995 150.387 26.3651C161.895 31.3307 171.905 38.0698 180.418 46.5823C188.93 55.0948 195.669 65.1049 200.635 76.6125C205.601 88.1201 208.083 100.416 208.083 113.5C208.083 126.584 205.601 138.88 200.635 150.388C195.669 161.895 188.93 171.905 180.418 180.418C171.905 188.93 161.895 195.669 150.387 200.635C138.88 205.601 126.584 208.083 113.5 208.083ZM113.5 189.167C134.624 189.167 152.516 181.836 167.176 167.176C181.836 152.516 189.167 134.624 189.167 113.5C189.167 92.3764 181.836 74.4844 167.176 59.824C152.516 45.1635 134.624 37.8333 113.5 37.8333C92.3764 37.8333 74.4844 45.1635 59.824 59.824C45.1635 74.4844 37.8333 92.3764 37.8333 113.5C37.8333 134.624 45.1635 152.516 59.824 167.176C74.4844 181.836 92.3764 189.167 113.5 189.167Z" fill="#E00615"/>
</svg>
