<svg width="489" height="326" viewBox="0 0 489 326" fill="none" xmlns="http://www.w3.org/2000/svg">
<path d="M298.578 106.16C297.538 106.16 296.098 106.16 295.618 105.6C294.898 104.8 294.978 103.6 294.978 102.24V66.88C294.978 66.48 294.898 66.08 294.978 65.68V65.44C294.978 63.52 294.498 62.88 293.378 62.88C292.498 62.88 291.698 62.88 291.058 62.72C290.578 62.48 290.338 62.08 290.178 61.2C290.178 60.72 290.098 60.4 290.178 59.92V55.6C290.178 54.56 290.178 53.2 290.498 52.72C291.058 52 291.858 52.08 292.738 52.08H305.538C305.858 52.08 306.098 52.08 306.418 52.16C308.498 52.72 308.338 54.32 308.338 55.76V101.68C308.338 103.92 308.738 105.52 306.658 106.08C306.178 106.16 305.858 106.24 305.378 106.16H298.578ZM320.261 96C318.741 96 317.781 96.08 316.901 95.44C316.341 95.04 316.341 94.08 316.341 93.2V87.2C316.341 85.6 317.381 85.36 318.421 85.36H325.461C334.501 85.36 338.741 82.4 338.741 74C338.741 73.68 338.741 72.56 338.661 71.92C338.661 71.36 338.581 70.64 338.421 70.08C338.341 69.68 338.341 69.36 338.181 69.04C338.021 68.8 337.941 68.48 337.861 68.24L337.381 67.36C335.941 64.72 333.221 62.88 328.021 62.88C327.941 62.96 327.701 62.96 327.621 62.88H318.901C318.181 62.88 317.701 62.8 317.301 62.4C316.741 61.84 316.741 60.88 316.741 59.68V56C316.741 55.6 316.741 55.2 316.661 54.8V54.48C316.661 54.32 316.661 54.08 316.741 53.84C317.061 52.48 317.781 52.08 319.461 52.08C320.181 52.16 320.901 52.08 321.541 52.08H332.341H332.981C333.621 52.08 335.061 52.24 336.101 52.48C336.581 52.48 337.541 52.64 339.221 53.04C343.381 54.48 346.181 56.24 348.341 59.12C348.821 59.52 349.061 60.16 349.301 60.48C350.901 63.28 352.021 66.96 352.021 69.84C352.101 70.4 352.101 71.28 352.101 71.92C352.101 72.88 352.101 74.32 352.021 75.36C352.021 78.72 350.661 82.96 348.821 86.24C348.581 86.64 348.261 87.36 347.701 87.76C345.141 91.2 341.861 93.2 337.061 94.96C335.061 95.36 333.941 95.6 333.381 95.6C333.141 95.6 332.501 95.76 332.101 95.84C331.301 95.92 330.501 96 329.701 96H328.981H327.381H320.261ZM366.938 96C365.898 96 364.458 96 363.978 95.44C363.258 94.64 363.338 93.44 363.338 92.08V66.88C363.338 66.48 363.258 66.08 363.338 65.68V65.44C363.338 63.52 362.858 62.88 361.738 62.88C360.858 62.88 360.058 62.88 359.418 62.72C358.938 62.48 358.698 62.08 358.538 61.2C358.538 60.72 358.458 60.4 358.538 59.92V55.6C358.538 54.56 358.538 53.2 358.858 52.72C359.418 52 360.217 52.08 361.098 52.08H373.658C374.138 52.08 374.378 52.08 374.778 52.16C376.858 52.72 376.698 54.32 376.698 55.76V91.52C376.698 93.76 377.098 95.36 375.018 95.92C374.538 96 374.218 96.08 373.738 96H366.938ZM389.909 96.56C388.789 96.56 387.509 96.56 386.149 96.24C385.109 96 384.709 95.84 384.629 95.28L384.389 93.84V87.04C384.389 86 385.269 85.52 386.149 85.68C386.629 85.76 387.269 85.76 387.829 85.76C391.429 85.76 393.909 84.56 393.909 77.76V66.72C393.909 66.32 393.829 66.08 393.909 65.68V65.36C393.909 65.12 393.909 64.88 393.829 64.64C393.589 63.68 393.269 63.2 392.389 62.96C392.069 62.8 390.789 62.88 391.029 62.88H388.789C386.549 62.88 384.949 63.28 384.389 61.2C384.309 60.72 384.229 60.4 384.309 59.92V55.6C384.309 54.56 384.309 53.2 384.869 52.72C385.669 52 386.869 52.08 388.229 52.08H419.269C423.669 52.08 426.149 53.12 428.629 54.56C429.349 54.96 430.309 55.68 430.789 56.32C431.109 56.56 431.349 56.8 431.589 57.12C432.229 58.08 432.949 58.88 433.429 59.84C433.749 60.48 434.629 62.88 434.709 63.68L434.789 64.24C434.869 64.72 434.949 65.2 434.949 65.76V66.72L435.029 92.56V94.08C434.949 95.12 434.549 95.68 433.909 95.76L432.869 96H432.149C431.909 96.08 431.429 96.08 430.949 96.08C430.549 96 430.069 96 429.669 96H424.869C424.709 95.92 424.549 95.92 424.389 96C424.069 96 423.909 96 423.749 95.92C422.389 95.68 421.829 94.96 421.829 93.84V71.2C421.829 68.72 421.829 66.48 420.709 65.04C419.909 63.84 418.709 63.12 416.949 62.96C416.709 62.88 416.389 62.88 416.149 62.88H408.309L407.989 62.96C407.509 63.04 407.269 63.28 407.109 63.84V79.76C407.109 80.48 407.189 80.72 407.109 81.36C407.109 83.68 406.789 85.68 406.069 87.44C405.989 87.92 405.749 88.4 405.509 88.8C404.069 91.76 402.229 93.6 399.429 95.04C398.949 95.28 397.989 95.68 397.509 95.76C395.189 96.4 392.549 96.56 389.909 96.56ZM480.92 96.08C480.52 96 480.04 96 479.64 96H474.84C474.68 95.92 474.52 95.92 474.36 96C474.04 96 473.88 96 473.72 95.92C472.36 95.68 471.8 94.96 471.8 93.84V71.2C471.8 68.72 471.8 66.48 470.68 65.04C469.88 63.84 468.68 63.12 466.92 62.96C466.68 62.88 466.36 62.88 466.12 62.88H447.72C445.48 62.88 443.88 63.28 443.32 61.2C443.24 60.72 443.16 60.4 443.24 59.92V55.6C443.24 54.56 443.24 53.2 443.8 52.72C444.6 52 445.8 52.08 447.16 52.08H469.24C473.64 52.08 476.12 53.12 478.6 54.56C479.32 54.96 480.28 55.68 480.76 56.32C481.08 56.56 481.32 56.8 481.56 57.12C482.2 58.08 482.92 58.88 483.4 59.84C483.72 60.56 483.96 61.28 484.2 62.08C484.28 62.32 484.28 62 484.44 62.8L484.68 63.68L484.76 64.24L484.84 64.8C484.92 65.2 484.92 66.32 484.92 66.72L485 92.56V94.08C484.92 95.12 484.52 95.68 483.88 95.76L482.84 96H482.12C481.88 96.08 481.4 96.08 480.92 96.08ZM443.48 92.08V75.84C443.48 74.72 444.04 74 445.4 73.76C445.56 73.68 445.72 73.68 446.04 73.68C446.2 73.76 446.36 73.76 446.52 73.68H451.24C451.64 73.68 452.12 73.68 452.52 73.6C453 73.6 453.48 73.6 453.72 73.68H454.44L455.48 73.92C456.12 74 456.52 74.56 456.6 75.6V91.52C456.6 93.76 457 95.36 454.92 95.92C454.52 96 454.2 96.08 453.72 96H446.92C445.88 96 444.6 96 444.12 95.44C443.4 94.64 443.48 93.44 443.48 92.08ZM269.227 168.08C268.747 168.08 268.267 168.08 268.027 168H267.307L266.267 167.76C265.627 167.68 265.227 167.12 265.147 166.08V127.92C264.987 125.68 265.707 124.56 266.987 124.24C267.147 124.08 267.707 124.08 268.187 124.08H292.587C296.987 124.16 299.467 125.12 301.947 126.56C302.667 126.96 303.627 127.68 304.107 128.32C304.427 128.56 304.667 128.8 304.907 129.12C305.547 130.08 306.267 130.88 306.747 131.84C307.067 132.56 307.307 133.28 307.547 134.08C307.627 134.32 307.627 134 307.787 134.8L308.027 135.68L308.187 136.8C308.187 136.96 308.267 137.44 308.267 137.76V138.72L308.347 155.52V166.08C308.267 167.12 307.867 167.68 307.227 167.76L306.187 168H305.467C305.227 168.08 304.747 168 304.267 168C303.867 167.92 303.387 168 302.987 168H270.507C270.107 168 269.627 168 269.227 168.08ZM278.347 155.76C278.347 156.56 278.987 157.2 279.787 157.2H293.227C293.627 157.2 294.027 157.12 294.267 156.88C294.507 156.72 294.667 156.56 294.747 156.32C294.987 156 295.067 155.68 295.147 155.28V143.2C295.147 140.72 295.147 138.48 294.027 137.04C293.227 135.84 292.027 135.12 290.267 134.96C290.027 134.88 289.707 134.88 289.467 134.88H279.707C279.547 134.88 279.307 134.88 279.227 134.96C278.987 135.04 278.747 135.12 278.667 135.28C278.587 135.36 278.507 135.44 278.507 135.52C278.427 135.68 278.347 135.92 278.347 136.08V155.76ZM326.199 168C325.479 168 324.919 167.92 324.599 167.6C324.359 167.28 324.199 166.96 324.199 166.64C324.199 166.16 324.439 165.68 324.599 165.12L334.919 136.72C334.999 136.56 334.999 136.4 334.999 136.24C334.999 135.44 334.439 134.88 333.559 134.88C332.679 134.96 331.879 134.96 331.159 134.96L318.199 134.88C317.639 134.88 316.999 134.88 316.839 134.64C315.399 134.32 314.599 133.04 314.839 130.56L314.759 112.24C314.759 111.12 315.319 110.4 316.679 110.16C316.839 110.08 316.999 110.08 317.319 110.08C317.479 110.16 317.639 110.16 317.799 110.08H322.439C322.839 110.08 323.319 110.08 323.719 110C324.199 110 324.679 110 324.919 110.08H325.639L326.679 110.32C327.319 110.4 327.719 110.96 327.799 112V121.12C327.799 122.24 327.799 122.4 327.879 122.8C328.039 123.6 328.359 123.84 329.079 124H329.559C329.639 124.08 329.799 124.08 329.959 124.08H345.799C346.359 124.08 347.399 124.08 347.559 124.32C348.999 124.64 349.559 125.92 349.559 128.4V132.88C349.559 133.92 349.399 134.64 348.999 135.76C348.679 136.88 348.439 137.44 348.279 138.16C347.959 138.88 347.719 139.6 347.399 140.32C346.759 141.92 346.279 143.28 345.799 144.8C345.479 145.92 344.759 147.52 342.839 152.88L337.959 166.32C337.639 167.2 337.239 167.76 336.039 167.92C335.959 168 335.799 168 335.559 168C335.399 167.92 335.319 168 335.159 168H326.199ZM364.75 168C363.71 168 362.27 168 361.79 167.44C361.07 166.64 361.15 165.44 361.15 164.08V138.88C361.15 138.48 361.07 138.08 361.15 137.68V137.44C361.15 135.52 360.67 134.88 359.55 134.88C358.67 134.88 357.87 134.88 357.23 134.72C356.75 134.48 356.51 134.08 356.35 133.2C356.35 132.72 356.27 132.4 356.35 131.92V127.6C356.35 126.56 356.35 125.2 356.67 124.72C357.23 124 358.03 124.08 358.91 124.08H371.47C371.95 124.08 372.19 124.08 372.59 124.16C374.67 124.72 374.51 126.32 374.51 127.76V163.52C374.51 165.76 374.91 167.36 372.83 167.92C372.35 168 372.03 168.08 371.55 168H364.75ZM384.282 168C383.242 167.92 382.682 167.52 382.602 166.88L382.362 165.76V165.12C382.282 164.88 382.282 164.4 382.282 163.92C382.362 163.44 382.362 162.96 382.362 162.56V159.92C382.442 159.76 382.442 159.6 382.362 159.44C382.362 159.2 382.362 158.96 382.442 158.8C382.602 157.76 383.162 157.12 384.282 157.12H400.362C401.402 157.12 401.962 156.4 401.962 155.6C401.962 155.28 401.882 154.88 401.642 154.56L394.762 145.28C393.002 142.88 390.922 140.08 390.522 139.6C390.122 139.12 389.722 138.64 389.402 138.16L386.522 134.4C385.802 133.44 385.242 132.48 383.722 130.64C383.242 130 382.762 129.36 382.202 128.72C381.962 128.24 381.482 127.6 380.922 126.64C380.682 126.32 380.522 125.92 380.522 125.52C380.522 124.88 381.082 124.16 381.962 124.08H392.762C393.482 124.08 394.202 124.4 394.682 125.04L405.002 138.88C405.242 139.2 405.562 139.2 405.962 139.04C407.882 137.2 408.282 134.4 408.842 130.48L409.562 125.52C409.642 124.72 410.442 124.08 411.242 124.08H422.042C422.362 124.08 423.482 124.24 423.242 125.6C422.922 127.36 422.602 129.44 422.122 131.28C420.842 137.84 419.002 143.52 413.322 146.64C412.682 146.96 412.362 147.6 412.362 148.16C412.362 148.48 412.442 148.88 412.682 149.2L416.922 155.04C417.162 155.36 417.882 156.32 418.042 156.48C418.362 156.8 418.522 157.2 418.842 157.6C419.242 158.16 419.482 159.28 419.562 160.24C419.642 161.68 419.562 162.64 419.562 163.68C419.562 166.16 419.002 167.44 417.562 167.76C417.402 168 416.362 168 415.802 168H384.282ZM456.837 169.12C449.157 169.12 444.757 167.04 440.997 164.88C439.717 164.16 438.197 163.12 437.317 161.92C437.157 161.76 436.117 160.88 435.877 160.48C434.837 158.88 433.637 157.44 432.837 155.6C431.557 152.72 431.877 153.2 431.477 151.92C430.997 150.72 431.237 151.28 431.077 150.48L430.677 148.96C430.597 148.64 430.197 146.96 430.197 145.52V126C430.277 124.96 430.677 124.4 431.237 124.32L432.277 124.08H432.997C433.237 124 433.717 124 434.117 124C434.517 124.08 434.997 124.08 435.397 124.08H439.717C439.877 124.16 440.037 124.16 440.197 124.08C440.517 124.08 440.677 124.08 440.837 124.16C442.117 124.4 442.677 125.12 442.677 126.24V141.92C442.677 142.8 442.677 143.6 442.757 144.4C442.837 145.2 443.557 145.68 444.357 145.44C449.157 143.92 451.317 140.4 451.317 134.24V126.24C451.317 125.12 451.877 124.4 453.077 124.16C453.237 124.08 453.397 124.08 453.717 124.08C453.877 124.16 454.037 124.16 454.197 124.08H461.477L462.357 124.16C462.917 124.24 463.397 124.96 463.477 126V134.72C463.477 145.28 458.597 150.96 447.317 153.52C446.837 153.68 446.677 154.16 446.997 154.48C449.477 157.04 452.997 158.48 456.997 158.48C460.357 158.48 463.397 157.44 465.877 155.6C466.517 155.12 467.557 154.32 468.037 153.52C468.757 152.96 468.517 152.96 468.757 152.72C468.997 152.4 470.277 150.64 470.597 149.68C470.917 148.8 471.317 147.28 471.397 147.12C471.477 146.8 471.477 147.2 471.637 146.32C471.957 144.64 472.117 142.72 472.117 141.12V126.24C472.117 125.12 472.677 124.4 473.957 124.16C474.117 124.08 474.277 124.08 474.597 124.08C474.757 124.16 474.917 124.16 475.077 124.08H479.397C479.797 124.08 480.277 124.08 480.677 124C481.077 124 481.557 124 481.797 124.08H482.517L483.557 124.32C484.117 124.4 484.517 124.96 484.597 126V142.48C484.597 147.92 483.397 152.48 480.997 156.64C480.757 157.28 480.277 158.08 479.797 158.64C476.357 163.44 472.757 165.52 466.997 167.68C466.357 167.92 464.037 168.56 461.957 168.8C461.717 168.8 461.477 168.8 461.237 168.88L458.837 169.04C458.837 169.12 458.357 169.12 458.197 169.12H456.837Z" fill="#E3F0FA"/>
<path d="M366.781 240C365.741 240 364.301 240 363.821 239.44C363.101 238.64 363.181 237.44 363.181 236.08V210.88C363.181 210.48 363.101 210.08 363.181 209.68V209.44C363.181 207.52 362.701 206.88 361.581 206.88C360.701 206.88 359.901 206.88 359.261 206.72C358.781 206.48 358.541 206.08 358.381 205.2C358.381 204.72 358.301 204.4 358.381 203.92V199.6C358.381 198.56 358.381 197.2 358.701 196.72C359.261 196 360.061 196.08 360.941 196.08H373.501C373.981 196.08 374.221 196.08 374.621 196.16C376.701 196.72 376.541 198.32 376.541 199.76V235.52C376.541 237.76 376.941 239.36 374.861 239.92C374.381 240 374.061 240.08 373.581 240H366.781ZM386.233 240C385.513 240 384.953 239.92 384.473 239.36C384.153 238.88 384.153 237.52 384.153 236.48V232.08C384.073 231.6 384.153 231.28 384.153 230.8C384.313 229.92 384.553 229.52 385.033 229.28C385.273 229.2 386.233 229.2 387.433 229.2H389.593C390.393 229.2 391.193 229.12 391.753 228.88C391.913 228.8 392.073 228.8 392.233 228.72L392.553 228.48C393.913 227.68 394.553 226.24 394.553 224V210.88C394.553 210.48 394.473 210.08 394.553 209.68V209.44C394.553 207.52 394.073 206.88 392.953 206.88H388.233C387.033 206.88 386.073 206.88 385.833 206.8C385.353 206.56 385.113 206.16 384.953 205.28C384.953 204.8 384.873 204.48 384.953 204V199.6C384.953 198.56 384.953 197.2 385.273 196.72C385.833 196 386.633 196.08 387.513 196.08H404.953C405.273 196.08 405.513 196.08 405.833 196.16C407.913 196.72 407.753 198.32 407.753 199.76V225.92L407.673 227.12V227.68C407.673 227.84 407.593 228.08 407.593 228.32C407.593 229.36 407.033 231.52 406.473 232.64C404.793 236.16 401.673 238.56 398.313 239.44C397.673 239.6 397.193 239.68 396.553 239.76C396.473 239.84 396.313 239.84 396.233 239.84C396.073 239.84 395.913 239.84 395.753 239.92L394.473 240H386.233ZM423.725 224.88C422.685 224.88 421.245 224.88 420.765 224.32C420.045 223.52 420.125 222.32 420.125 220.96V210.88C420.125 210.48 420.045 210.08 420.125 209.68V209.44C420.125 207.52 419.645 206.88 418.525 206.88C417.645 206.88 416.845 206.88 416.205 206.72C415.725 206.48 415.485 206.08 415.325 205.2C415.325 204.72 415.245 204.4 415.325 203.92V199.6C415.325 198.56 415.325 197.2 415.645 196.72C416.205 196 417.005 196.08 417.885 196.08H430.525C430.845 196.08 431.085 196.08 431.405 196.16C433.485 196.72 433.325 198.32 433.325 199.76V220.4C433.325 222.64 433.725 224.24 431.645 224.8C431.165 224.88 430.845 224.96 430.365 224.88H423.725ZM441.529 240C440.729 240 440.089 239.28 440.249 238.48C440.729 235.84 441.209 233.2 441.849 230.4C443.289 223.76 444.889 218.24 451.049 215.12C451.609 214.88 451.849 214.4 451.849 213.92C451.849 213.6 451.769 213.36 451.609 213.12C451.289 212.56 450.889 212.08 450.489 211.6C450.089 211.12 449.689 210.64 449.369 210.16L446.489 206.4C445.609 205.12 444.729 203.92 443.689 202.64C443.209 202 442.729 201.36 442.169 200.72C442.009 200.4 441.689 200 441.529 199.76C441.209 199.44 441.049 199.04 440.889 198.64C440.649 198.32 440.489 197.92 440.489 197.52C440.489 196.88 441.049 196.16 441.929 196.08H453.209C453.929 196.08 454.649 196.4 455.129 197.04L466.169 211.92C466.409 212.24 466.809 212.32 467.209 212.16C470.329 210.16 470.809 207.04 471.449 202.48L472.169 197.44C472.249 196.64 472.889 196.08 473.689 196.08H484.329C485.129 196.08 485.769 196.72 485.609 197.6C485.289 199.36 484.969 201.44 484.569 203.28C483.049 210.96 480.969 216.56 473.929 219.44C473.289 219.68 472.969 220.16 472.969 220.72C472.969 221.04 473.129 221.28 473.289 221.6C473.609 222.16 475.049 224 475.449 224.48C475.849 224.96 476.249 225.44 476.569 225.92L479.449 229.68C480.329 230.96 481.209 232.16 482.249 233.44C482.729 234.08 483.209 234.72 483.769 235.36C483.929 235.68 484.249 236.08 484.409 236.32C484.729 236.64 484.889 237.04 485.049 237.44C485.289 237.76 485.449 238.16 485.449 238.56C485.449 239.28 485.049 240 484.089 240H472.729C472.009 240 471.289 239.6 470.809 239.04L458.809 223.04C458.729 222.96 458.649 222.8 458.409 222.8C458.249 222.8 457.929 223.04 457.769 223.2C456.009 225.2 455.689 228.16 455.129 231.36C454.649 234.08 454.329 236.32 453.929 238.64C453.849 239.44 453.209 240 452.409 240H441.529ZM342.719 322.16C341.679 322.16 340.239 322.16 339.759 321.6C339.039 320.8 339.119 319.6 339.119 318.24V282.88C339.119 282.48 339.039 282.08 339.119 281.68V281.44C339.119 279.52 338.639 278.88 337.519 278.88C336.639 278.88 335.839 278.88 335.199 278.72C334.719 278.48 334.479 278.08 334.319 277.2C334.319 276.72 334.239 276.4 334.319 275.92V271.6C334.319 270.56 334.319 269.2 334.639 268.72C335.199 268 335.999 268.08 336.879 268.08H349.679C349.999 268.08 350.239 268.08 350.559 268.16C352.639 268.72 352.479 270.32 352.479 271.76V317.68C352.479 319.92 352.879 321.52 350.799 322.08C350.319 322.16 349.999 322.24 349.519 322.16H342.719ZM368.881 296.88C367.841 296.88 366.401 296.88 365.921 296.32C365.201 295.52 365.281 294.32 365.281 292.96V282.88C365.281 282.48 365.201 282.08 365.281 281.68V281.44C365.281 279.52 364.801 278.88 363.681 278.88C362.801 278.88 362.001 278.88 361.361 278.72C360.881 278.48 360.641 278.08 360.481 277.2C360.481 276.72 360.401 276.4 360.481 275.92V271.6C360.481 270.56 360.481 269.2 360.801 268.72C361.361 268 362.161 268.08 363.041 268.08H375.681C376.001 268.08 376.241 268.08 376.561 268.16C378.641 268.72 378.481 270.32 378.481 271.76V292.4C378.481 294.64 378.881 296.24 376.801 296.8C376.321 296.88 376.001 296.96 375.521 296.88H368.881ZM413.777 312.8C411.937 312.8 410.417 312.56 410.337 312.56C409.057 312.4 408.577 311.84 408.577 310.4V302.64C408.577 301.92 409.057 301.52 409.697 301.44C410.577 301.44 411.617 301.6 412.897 301.6C417.137 301.6 420.657 299.76 421.937 294.8C422.337 293.12 422.577 291.36 422.577 289.84V288.72C422.577 288.32 422.417 286.88 422.257 286.16C422.017 285.52 421.937 285.04 421.777 284.4C421.537 283.68 421.217 282.96 420.817 282.24C420.737 282 420.577 281.76 420.417 281.6C420.257 281.12 419.697 280.56 419.377 280.24C418.097 279.12 416.657 278.4 414.577 278.32H414.257C411.137 278.32 408.497 279.76 406.657 283.28C405.297 285.92 404.337 289.76 404.097 291.52C403.857 292.96 402.417 304.64 402.017 307.28L401.537 310.56C401.457 311.44 401.057 312.08 399.937 312.24C399.857 312.32 399.697 312.32 399.457 312.32C399.297 312.24 399.217 312.24 399.057 312.32H391.377C390.417 312.32 389.137 312.32 388.737 311.92C388.417 311.6 388.337 311.2 388.337 310.72C388.337 310.32 388.417 309.92 388.417 309.44C388.897 305.12 390.177 296.16 391.057 290.88C391.617 287.44 391.937 285.76 392.017 285.04C392.097 284.72 392.097 284.4 392.097 284.08C392.097 283.28 391.857 282.56 391.537 281.92L387.057 273.52C386.817 273.04 386.897 273.28 385.537 270.88C385.377 270.64 385.297 270.32 385.297 270.08C385.297 269.04 386.257 268 387.297 268H388.177C388.497 267.92 388.737 267.92 389.137 267.92C390.017 267.92 390.817 268 391.297 268H395.217C396.097 268 397.137 268 397.857 268.08C399.297 268.4 399.697 269.12 400.337 270.32C400.737 271.12 401.457 272.08 401.537 272.24C401.857 272.64 402.337 272.72 402.657 272.8H402.817C403.137 272.8 403.617 272.56 404.017 272.24C405.217 271.12 408.177 268.48 410.657 268.08C411.217 268 411.377 268.08 411.857 268C412.097 268 412.337 267.76 412.497 267.76C413.537 267.6 413.857 267.52 414.737 267.52H415.057H415.377C420.577 267.28 423.937 268.48 427.137 270.56C428.177 271.2 429.377 272.16 429.937 272.8C430.257 273.2 430.657 273.52 430.897 273.84C432.097 275.44 432.977 276.72 433.217 277.28C433.377 277.68 433.857 279.2 434.257 280.16C434.337 280.32 434.497 280.88 434.497 281.04C434.497 281.28 434.737 282.08 434.817 282.24C434.817 282.48 434.897 282.72 434.897 282.96C434.977 283.44 435.057 283.36 435.057 283.52L435.137 284.16C435.377 285.44 435.617 286.96 435.617 288.08C435.697 288.72 435.697 289.28 435.697 289.84C435.697 294.56 434.737 298.48 432.977 301.92C432.737 302.48 432.497 303.2 432.017 303.68C429.777 307.44 426.897 309.76 422.497 311.52C421.937 311.68 421.377 311.92 420.817 311.92C420.577 311.92 419.537 312.24 419.217 312.32C418.177 312.48 416.897 312.8 415.857 312.8H414.817H413.777ZM441.529 312C440.729 312 440.089 311.28 440.249 310.48C440.729 307.84 441.209 305.2 441.849 302.4C443.289 295.76 444.889 290.24 451.049 287.12C451.609 286.88 451.849 286.4 451.849 285.92C451.849 285.6 451.769 285.36 451.609 285.12C451.289 284.56 450.889 284.08 450.489 283.6C450.089 283.12 449.689 282.64 449.369 282.16L446.489 278.4C445.609 277.12 444.729 275.92 443.689 274.64C443.209 274 442.729 273.36 442.169 272.72C442.009 272.4 441.689 272 441.529 271.76C441.209 271.44 441.049 271.04 440.889 270.64C440.649 270.32 440.489 269.92 440.489 269.52C440.489 268.88 441.049 268.16 441.929 268.08H453.209C453.929 268.08 454.649 268.4 455.129 269.04L466.169 283.92C466.409 284.24 466.809 284.32 467.209 284.16C470.329 282.16 470.809 279.04 471.449 274.48L472.169 269.44C472.249 268.64 472.889 268.08 473.689 268.08H484.329C485.129 268.08 485.769 268.72 485.609 269.6C485.289 271.36 484.969 273.44 484.569 275.28C483.049 282.96 480.969 288.56 473.929 291.44C473.289 291.68 472.969 292.16 472.969 292.72C472.969 293.04 473.129 293.28 473.289 293.6C473.609 294.16 475.049 296 475.449 296.48C475.849 296.96 476.249 297.44 476.569 297.92L479.449 301.68C480.329 302.96 481.209 304.16 482.249 305.44C482.729 306.08 483.209 306.72 483.769 307.36C483.929 307.68 484.249 308.08 484.409 308.32C484.729 308.64 484.889 309.04 485.049 309.44C485.289 309.76 485.449 310.16 485.449 310.56C485.449 311.28 485.049 312 484.089 312H472.729C472.009 312 471.289 311.6 470.809 311.04L458.809 295.04C458.729 294.96 458.649 294.8 458.409 294.8C458.249 294.8 457.929 295.04 457.769 295.2C456.009 297.2 455.689 300.16 455.129 303.36C454.649 306.08 454.329 308.32 453.929 310.64C453.849 311.44 453.209 312 452.409 312H441.529Z" fill="#E00615"/>
<path d="M240.348 0.448483L291.607 0.448488C296.912 0.433538 300 4.41019 300 8.82037C300 10.5844 299.565 12.3485 298.681 14.1126C296.478 16.7587 287.635 30.4228 284.547 34.3845L219.604 129.151C215.633 136.207 213.864 137.089 209.442 144.131L208.558 145.013L205.471 150.305C204.586 151.187 203.702 152.503 203.267 153.833C200.615 156.479 199.296 160.007 197.527 164.851C197.092 165.733 197.092 167.049 197.092 168.379C197.092 171.025 197.977 174.105 199.296 175.869C199.296 176.303 199.73 176.303 199.73 176.751L237.74 233.157C245.698 244.608 255.411 259.154 263.819 271.503C272.212 283.403 279.721 294.854 287.68 306.754C288.999 308.519 289.448 310.283 289.448 311.598C289.448 316.008 286.361 319.537 281.055 319.537L223.606 319.537C221.823 320 219.619 320 218.285 320C216.951 320 215.198 320 213.864 319.566C211.211 319.566 208.124 318.684 206.355 316.038L155.98 241.558C154.212 239.361 152.008 238.03 149.356 238.03C146.703 238.03 144.05 239.346 142.731 241.558L106.505 296.215C102.968 301.507 95.9083 311.195 92.8058 316.053C91.0372 318.699 88.3843 319.581 85.7314 319.581C83.9628 320 82.6289 320 81.31 320C79.5414 320 78.2224 320 76.4539 319.566L25.6445 319.566C20.3387 319.566 17.2512 315.605 17.2512 311.195C17.2512 309.43 17.6859 307.666 18.5702 305.902C20.7734 303.256 29.6163 289.592 32.7039 285.63L89.2536 201.448C91.0222 199.251 91.4569 197.487 93.6751 194.84L101.634 182.94L102.953 180.294C104.721 178.097 106.49 173.687 105.606 169.71C103.837 164.866 102.518 161.338 99.8651 158.692C99.4305 157.81 98.9808 156.928 98.5462 156.494L90.1529 143.712C87.9497 140.633 86.1811 138.868 83.5282 134.01L51.7087 86.8582C43.75 75.4067 34.0378 60.8605 25.6295 48.512C17.2363 36.612 9.71228 25.1605 1.76864 13.2604C0.449691 11.4964 3.87446e-05 9.73228 3.88596e-05 8.4167C3.92452e-05 4.00651 3.08758 0.478368 8.39333 0.478369L65.8424 0.478374C67.611 0.0298807 69.8142 0.0298764 71.1481 0.0298765C72.4821 0.0298766 74.2356 0.0298667 75.5696 0.46341C78.2225 0.463411 81.31 1.34545 83.0786 3.99156L147.152 98.3097C148.921 100.956 151.124 101.838 153.777 101.838C156.43 101.838 158.633 100.956 160.402 98.3097L210.327 24.697L224.026 3.97663C225.794 1.33052 228.447 0.448482 231.1 0.448482C232.869 -1.07921e-05 234.188 -1.52213e-05 235.522 -1.51047e-05C237.29 -1.495e-05 238.609 -2.04779e-06 240.378 0.433542L240.348 0.448483Z" fill="#E00615"/>
</svg>
