<svg width="223" height="95" viewBox="0 0 223 95" fill="none" xmlns="http://www.w3.org/2000/svg">
<path d="M64.8939 8.12194L78.7338 8.12194C80.1664 8.11788 81 9.19903 81 10.398C81 10.8777 80.8827 11.3573 80.6439 11.8369C80.049 12.5563 77.6614 16.2712 76.8278 17.3483L59.2932 43.113C58.2208 45.0314 57.7433 45.2712 56.5495 47.1856L56.3107 47.4254L55.4771 48.8642C55.2383 49.104 54.9996 49.4617 54.8822 49.8234C54.1659 50.5428 53.8098 51.502 53.3323 52.8189C53.2149 53.0587 53.2149 53.4164 53.2149 53.7781C53.2149 54.4975 53.4537 55.3348 53.8098 55.8144C53.8098 55.9323 53.9272 55.9323 53.9272 56.0542L64.1897 71.3895C66.3386 74.5029 68.9609 78.4576 71.2311 81.8149C73.4973 85.0502 75.5247 88.1636 77.6736 91.3989C78.0297 91.8785 78.1511 92.3581 78.1511 92.7158C78.1511 93.9148 77.3174 94.874 75.8849 94.874L60.3736 94.874C59.8921 95 59.2972 95 58.937 95C58.5769 95 58.1034 95 57.7433 94.8821C57.027 94.8821 56.1933 94.6423 55.7158 93.9229L42.1147 73.6737C41.6371 73.0762 41.0423 72.7145 40.326 72.7145C39.6097 72.7145 38.8934 73.0722 38.5373 73.6737L28.7563 88.5334C27.8013 89.9722 25.8952 92.606 25.0575 93.927C24.58 94.6464 23.8638 94.8862 23.1475 94.8862C22.67 95 22.3098 95 21.9537 95C21.4762 95 21.1201 95 20.6425 94.8821L6.924 94.8821C5.49145 94.8821 4.65782 93.805 4.65782 92.606C4.65782 92.1264 4.77517 91.6468 5.01393 91.1672C5.6088 90.4478 7.9964 86.7329 8.83003 85.6558L24.0985 62.7687C24.576 62.1713 24.6933 61.6917 25.2923 60.9722L27.4411 57.7369L27.7972 57.0175C28.2747 56.42 28.7523 55.221 28.5135 54.1399C28.036 52.823 27.6799 51.8638 26.9636 51.1444C26.8462 50.9046 26.7248 50.6647 26.6075 50.5469L24.3413 47.0718C23.7464 46.2345 23.2689 45.7549 22.5526 44.4339L13.9613 31.6146C11.8125 28.5012 9.1902 24.5465 6.91997 21.1892C4.65378 17.9539 2.62231 14.8405 0.477523 11.6052C0.121406 11.1256 -2.54932e-07 10.646 -2.23663e-07 10.2883C-1.18841e-07 9.08928 0.833633 8.13007 2.26619 8.13007L17.7774 8.13007C18.255 8.00814 18.8498 8.00814 19.21 8.00814C19.5701 8.00814 20.0436 8.00813 20.4038 8.126C21.1201 8.126 21.9537 8.3658 22.4312 9.08522L39.7311 34.728C40.2086 35.4474 40.8035 35.6872 41.5198 35.6872C42.2361 35.6872 42.8309 35.4474 43.3085 34.728L56.7882 14.7145L60.487 9.08116C60.9645 8.36175 61.6808 8.12194 62.397 8.12194C62.8746 8.00001 63.2307 8.00001 63.5908 8.00001C64.0684 8.00001 64.4245 8.00001 64.902 8.11788L64.8939 8.12194Z" fill="#E00615"/>
<path d="M105.407 82.1017L105.814 80.4025C105.814 79.8618 105.977 79.4756 106.059 79.3984C107.524 76.0773 109.56 73.9919 113.225 72.6789C114.039 72.1382 114.853 72.061 115.505 71.9065C115.668 71.7521 115.749 71.7521 116.156 71.7521C116.319 71.7521 116.401 71.9065 116.564 71.7521C123.322 71.5204 126.987 74.6098 129.023 79.3212C129.593 80.248 130 81.7927 130 83.4147C130 84.7277 129.756 85.9634 129.349 87.0447C128.29 89.748 125.277 93.0691 121.612 94.5366C121.205 94.6911 120.554 94.7683 120.228 94.7683C119.821 94.7683 119.414 95 118.599 95C113.713 95 113.713 94.6139 112.492 93.996C108.257 91.6789 107.036 90.5204 105.57 86.2724C105.326 85.5 105 84.496 105 83.5691C105 83.0285 105 82.4106 105.244 82.0244L105.407 82.1017ZM110.619 61.0163C110.049 60.3984 110.049 59.2399 109.967 57.7724L106.221 26.4919C105.814 22.8618 105.57 20.9309 105.57 16.2968V3.70735C105.57 1.85369 106.547 0.695151 108.827 0.308972C109.072 0.154501 109.397 0.154501 109.886 0.154501C110.13 0.308972 110.456 0.308972 110.7 0.154501H119.821C120.472 0.154501 121.287 0.154501 122.02 2.91863e-05C122.834 2.91863e-05 123.648 2.91863e-05 124.055 0.154501H125.277L127.068 0.54068C128.127 0.695151 128.86 1.54474 128.941 3.24393V18.1504C128.941 19.9269 128.778 21.8578 128.534 23.7114L124.707 57.0773C124.544 58.622 124.544 60.0122 123.893 60.7846C123.648 61.0163 123.241 61.3252 122.671 61.4025C122.264 61.4025 121.857 61.5569 121.45 61.4025H113.469C112.41 61.4025 111.189 61.4025 110.619 60.8618V61.0163Z" fill="#FF9000"/>
<path d="M168.185 92.5696L160.604 73.2196C159.762 70.7917 158.676 67.8784 157.834 65.3313C157.111 63.027 156.27 60.5992 155.547 58.1714L154.224 54.6532C154.101 54.0484 153.864 53.1965 154.101 52.4682C154.342 51.8634 155.065 51.3778 156.029 51.135C156.389 51.135 156.752 51.135 156.87 51.0115H170.607C171.93 51.0115 173.258 51.0115 173.981 51.4971C175.063 52.1019 175.545 53.4393 176.15 55.0153C176.632 56.7147 177.232 58.2907 177.596 59.5046L179.997 67.4482C180.357 68.5386 181.202 69.1477 182.044 69.1477C182.644 69.1477 183.367 68.6621 183.731 67.5717L202.279 10.0326C202.879 8.45669 203.602 7.97112 205.412 7.24278C206.012 7.11926 206.617 7 207.34 7C208.063 7.11926 208.663 7.11926 209.145 7.11926H218.785C220.231 7.11926 221.677 7.24278 222.4 7.96686C222.882 8.45243 223 9.05725 223 9.66633C223 10.6375 222.518 11.6086 222.277 12.3369C221.795 13.6701 221.195 15.1268 220.713 16.5835C220.112 18.1594 219.63 19.9824 219.148 21.3156C218.789 22.0439 218.666 22.5295 218.548 23.1343C218.189 23.8626 217.825 24.4674 217.702 25.0765L194.571 92.6804C193.848 94.4991 192.402 95.1082 190.715 94.9847H172.281C170.353 94.9847 168.789 94.0135 168.185 92.5568V92.5696Z" fill="#74D03C"/>
</svg>
