<svg width="318" height="88" viewBox="0 0 318 88" fill="none" xmlns="http://www.w3.org/2000/svg">
<path d="M24.7917 86L0 61.2083V25.7917L24.7917 1H60.2083L85 25.7917V61.2083L60.2083 86H24.7917ZM29.0417 63.5694L42.5 50.1111L55.9583 63.5694L62.5694 56.9583L49.1111 43.5L62.5694 30.0417L55.9583 23.4306L42.5 36.8889L29.0417 23.4306L22.4306 30.0417L35.8889 43.5L22.4306 56.9583L29.0417 63.5694ZM28.8056 76.5555H56.1944L75.5555 57.1944V29.8056L56.1944 10.4444H28.8056L9.44444 29.8056V57.1944L28.8056 76.5555Z" fill="#E00615"/>
<path d="M275.288 69C276.775 69 278.032 68.4865 279.059 67.4594C280.086 66.4323 280.6 65.175 280.6 63.6875C280.6 62.2 280.086 60.9427 279.059 59.9156C278.032 58.8885 276.775 58.375 275.288 58.375C273.8 58.375 272.543 58.8885 271.516 59.9156C270.489 60.9427 269.975 62.2 269.975 63.6875C269.975 65.175 270.489 66.4323 271.516 67.4594C272.543 68.4865 273.8 69 275.288 69ZM271.463 52.6375H279.325C279.325 50.3 279.591 48.4583 280.122 47.1125C280.653 45.7667 282.158 43.925 284.638 41.5875C286.479 39.7458 287.931 37.9927 288.994 36.3281C290.056 34.6635 290.588 32.6625 290.588 30.325C290.588 26.3583 289.135 23.3125 286.231 21.1875C283.327 19.0625 279.892 18 275.925 18C271.888 18 268.611 19.0625 266.097 21.1875C263.582 23.3125 261.829 25.8625 260.838 28.8375L267.85 31.6C268.204 30.325 269.001 28.9438 270.241 27.4563C271.48 25.9688 273.375 25.225 275.925 25.225C278.192 25.225 279.892 25.8448 281.025 27.0844C282.158 28.324 282.725 29.6875 282.725 31.175C282.725 32.5917 282.3 33.9198 281.45 35.1594C280.6 36.399 279.538 37.55 278.263 38.6125C275.146 41.375 273.233 43.4646 272.525 44.8813C271.817 46.2979 271.463 48.8833 271.463 52.6375ZM275.5 86C269.621 86 264.096 84.8844 258.925 82.6531C253.754 80.4219 249.256 77.3938 245.431 73.5687C241.606 69.7438 238.578 65.2458 236.347 60.075C234.116 54.9042 233 49.3792 233 43.5C233 37.6208 234.116 32.0958 236.347 26.925C238.578 21.7542 241.606 17.2563 245.431 13.4313C249.256 9.60625 253.754 6.57812 258.925 4.34688C264.096 2.11563 269.621 1 275.5 1C281.379 1 286.904 2.11563 292.075 4.34688C297.246 6.57812 301.744 9.60625 305.569 13.4313C309.394 17.2563 312.422 21.7542 314.653 26.925C316.884 32.0958 318 37.6208 318 43.5C318 49.3792 316.884 54.9042 314.653 60.075C312.422 65.2458 309.394 69.7438 305.569 73.5687C301.744 77.3938 297.246 80.4219 292.075 82.6531C286.904 84.8844 281.379 86 275.5 86ZM275.5 77.5C284.992 77.5 293.031 74.2063 299.619 67.6188C306.206 61.0312 309.5 52.9917 309.5 43.5C309.5 34.0083 306.206 25.9688 299.619 19.3813C293.031 12.7938 284.992 9.5 275.5 9.5C266.008 9.5 257.969 12.7938 251.381 19.3813C244.794 25.9688 241.5 34.0083 241.5 43.5C241.5 52.9917 244.794 61.0312 251.381 67.6188C257.969 74.2063 266.008 77.5 275.5 77.5Z" fill="#FF9000"/>
<path d="M175.4 39.6C177.233 39.6 178.792 38.9583 180.075 37.675C181.358 36.3917 182 34.8333 182 33C182 31.1667 181.358 29.6083 180.075 28.325C178.792 27.0417 177.233 26.4 175.4 26.4C173.567 26.4 172.008 27.0417 170.725 28.325C169.442 29.6083 168.8 31.1667 168.8 33C168.8 34.8333 169.442 36.3917 170.725 37.675C172.008 38.9583 173.567 39.6 175.4 39.6ZM144.6 39.6C146.433 39.6 147.992 38.9583 149.275 37.675C150.558 36.3917 151.2 34.8333 151.2 33C151.2 31.1667 150.558 29.6083 149.275 28.325C147.992 27.0417 146.433 26.4 144.6 26.4C142.767 26.4 141.208 27.0417 139.925 28.325C138.642 29.6083 138 31.1667 138 33C138 34.8333 138.642 36.3917 139.925 37.675C141.208 38.9583 142.767 39.6 144.6 39.6ZM160 68.2C164.987 68.2 169.515 66.7883 173.585 63.965C177.655 61.1417 180.607 57.42 182.44 52.8H137.56C139.393 57.42 142.345 61.1417 146.415 63.965C150.485 66.7883 155.013 68.2 160 68.2ZM160 88C153.913 88 148.193 86.845 142.84 84.535C137.487 82.225 132.83 79.09 128.87 75.13C124.91 71.17 121.775 66.5133 119.465 61.16C117.155 55.8067 116 50.0867 116 44C116 37.9133 117.155 32.1933 119.465 26.84C121.775 21.4867 124.91 16.83 128.87 12.87C132.83 8.91 137.487 5.775 142.84 3.465C148.193 1.155 153.913 0 160 0C166.087 0 171.807 1.155 177.16 3.465C182.513 5.775 187.17 8.91 191.13 12.87C195.09 16.83 198.225 21.4867 200.535 26.84C202.845 32.1933 204 37.9133 204 44C204 50.0867 202.845 55.8067 200.535 61.16C198.225 66.5133 195.09 71.17 191.13 75.13C187.17 79.09 182.513 82.225 177.16 84.535C171.807 86.845 166.087 88 160 88ZM160 79.2C169.827 79.2 178.15 75.79 184.97 68.97C191.79 62.15 195.2 53.8267 195.2 44C195.2 34.1733 191.79 25.85 184.97 19.03C178.15 12.21 169.827 8.8 160 8.8C150.173 8.8 141.85 12.21 135.03 19.03C128.21 25.85 124.8 34.1733 124.8 44C124.8 53.8267 128.21 62.15 135.03 68.97C141.85 75.79 150.173 79.2 160 79.2Z" fill="#74D03C"/>
</svg>
