<svg width="26" height="26" viewBox="0 0 26 26" fill="none" xmlns="http://www.w3.org/2000/svg">
<path d="M21.6123 3.25C21.9373 3.25 22.2081 3.35853 22.4248 3.5752C22.6415 3.79186 22.75 4.0627 22.75 4.3877C22.75 6.64453 22.2584 8.87447 21.2744 11.0771C20.2904 13.2799 18.8954 15.2843 17.0898 17.0898C15.2843 18.8954 13.2799 20.2904 11.0771 21.2744C8.87447 22.2584 6.64453 22.75 4.3877 22.75C4.0627 22.75 3.79186 22.6415 3.5752 22.4248C3.35853 22.2081 3.25 21.9373 3.25 21.6123V17.2246C3.25009 16.99 3.33173 16.7783 3.49414 16.5889C3.65652 16.3994 3.86368 16.2685 4.11621 16.1963L7.85449 15.4375C8.10712 15.4015 8.36433 15.4237 8.62598 15.5049C8.88778 15.5861 9.10019 15.7086 9.2627 15.8711L11.8086 18.417C12.4947 18.0198 13.1449 17.582 13.7588 17.1035C14.3726 16.6251 14.9589 16.1055 15.5186 15.5459C16.1143 14.9682 16.6607 14.368 17.1572 13.7451C17.6537 13.1223 18.0823 12.4765 18.4434 11.8086L15.8164 9.1543C15.672 9.00987 15.5727 8.83822 15.5186 8.63965C15.4644 8.44104 15.4551 8.19709 15.4912 7.9082L16.1963 4.11621C16.2325 3.88171 16.3494 3.67824 16.5479 3.50684C16.7463 3.3355 16.9721 3.25009 17.2246 3.25H21.6123ZM5.41699 18.1455V20.5293C6.15711 20.4751 6.88828 20.3489 7.61035 20.1504C8.33257 19.9518 9.04583 19.6985 9.75 19.3916L7.96289 17.6045L5.41699 18.1455ZM17.6582 7.96289L19.4463 9.75C19.7532 9.04589 19.9879 8.33252 20.1504 7.61035C20.3129 6.88828 20.439 6.15712 20.5293 5.41699H18.1455L17.6582 7.96289Z" fill="#050130"/>
<path d="M21.6123 3.25C21.9373 3.25 22.2081 3.35853 22.4248 3.5752C22.6415 3.79186 22.75 4.0627 22.75 4.3877C22.75 6.64453 22.2584 8.87447 21.2744 11.0771C20.2904 13.2799 18.8954 15.2843 17.0898 17.0898C15.2843 18.8954 13.2799 20.2904 11.0771 21.2744C8.87447 22.2584 6.64453 22.75 4.3877 22.75C4.0627 22.75 3.79186 22.6415 3.5752 22.4248C3.35853 22.2081 3.25 21.9373 3.25 21.6123V17.2246C3.25009 16.99 3.33173 16.7783 3.49414 16.5889C3.65652 16.3994 3.86368 16.2685 4.11621 16.1963L7.85449 15.4375C8.10712 15.4015 8.36433 15.4237 8.62598 15.5049C8.88778 15.5861 9.10019 15.7086 9.2627 15.8711L11.8086 18.417C12.4947 18.0198 13.1449 17.582 13.7588 17.1035C14.3726 16.6251 14.9589 16.1055 15.5186 15.5459C16.1143 14.9682 16.6607 14.368 17.1572 13.7451C17.6537 13.1223 18.0823 12.4765 18.4434 11.8086L15.8164 9.1543C15.672 9.00987 15.5727 8.83822 15.5186 8.63965C15.4644 8.44104 15.4551 8.19709 15.4912 7.9082L16.1963 4.11621C16.2325 3.88171 16.3494 3.67824 16.5479 3.50684C16.7463 3.3355 16.9721 3.25009 17.2246 3.25H21.6123ZM5.41699 18.1455V20.5293C6.15711 20.4751 6.88828 20.3489 7.61035 20.1504C8.33257 19.9518 9.04583 19.6985 9.75 19.3916L7.96289 17.6045L5.41699 18.1455ZM17.6582 7.96289L19.4463 9.75C19.7532 9.04589 19.9879 8.33252 20.1504 7.61035C20.3129 6.88828 20.439 6.15712 20.5293 5.41699H18.1455L17.6582 7.96289Z" stroke="white"/>
</svg>
