<svg width="45" height="44" viewBox="0 0 45 44" fill="none" xmlns="http://www.w3.org/2000/svg">
<ellipse cx="22.5" cy="22" rx="22.5" ry="22" fill="#C7DCED"/>
<path d="M22.333 21.9248C24.1431 21.9248 25.9257 22.1325 27.6807 22.5469C29.4357 22.9613 31.1651 23.5829 32.8682 24.4131V24.4121C33.6232 24.7935 34.2268 25.3459 34.6836 26.0713C35.1391 26.7947 35.3662 27.5855 35.3662 28.4502V32.7002H9.2998V28.4502C9.2998 27.5854 9.52781 26.7948 9.9834 26.0713C10.4401 25.3462 11.0433 24.7944 11.7979 24.4131C13.501 23.5828 15.2303 22.9613 16.9854 22.5469C18.7403 22.1325 20.5229 21.9248 22.333 21.9248ZM22.333 24.5752C20.7539 24.5752 19.1889 24.7608 17.6387 25.1318C16.2821 25.4565 14.9376 25.9228 13.6055 26.5303L13.0352 26.7988L13.0234 26.8047C12.7275 26.965 12.4885 27.1915 12.3086 27.4785C12.1248 27.7717 12.0332 28.0981 12.0332 28.4502V30.0498H32.6338V28.4502C32.6338 28.0981 32.5421 27.7717 32.3584 27.4785C32.1785 27.1915 31.9386 26.965 31.6426 26.8047L31.6318 26.7988L31.0615 26.5303C29.7293 25.9228 28.3849 25.4565 27.0283 25.1318C25.4779 24.7608 23.9123 24.5752 22.333 24.5752ZM22.333 7.2998C24.0885 7.2998 25.5829 7.90618 26.832 9.12402C28.081 10.3418 28.7002 11.7952 28.7002 13.5C28.7002 15.2048 28.081 16.6582 26.832 17.876C25.5829 19.0938 24.0885 19.7002 22.333 19.7002C20.5776 19.7001 19.0831 19.0939 17.834 17.876C16.5851 16.6583 15.9668 15.2047 15.9668 13.5C15.9668 11.7953 16.5851 10.3417 17.834 9.12402C19.0831 7.90614 20.5776 7.29988 22.333 7.2998ZM22.333 9.9502C21.3387 9.95027 20.4786 10.2989 19.7695 10.9902C19.0603 11.6818 18.7002 12.5237 18.7002 13.5C18.7002 14.4763 19.0603 15.3182 19.7695 16.0098C20.4786 16.7011 21.3387 17.0497 22.333 17.0498C23.3274 17.0498 24.1873 16.7011 24.8965 16.0098C25.6059 15.3181 25.9668 14.4764 25.9668 13.5C25.9668 12.5236 25.6059 11.6819 24.8965 10.9902C24.1873 10.2989 23.3274 9.9502 22.333 9.9502Z" fill="#1F1F1F" stroke="#C7DCED" stroke-width="0.6"/>
</svg>
