<svg width="135" height="300" viewBox="0 0 135 300" fill="none" xmlns="http://www.w3.org/2000/svg">
<path d="M36.5833 56H34.4713V48.248C34.4713 46.352 33.6313 45.392 31.9993 45.392H26.0713V43.544H32.4073C35.1193 43.544 36.5833 45.176 36.5833 48.2V56ZM28.1833 56H26.0713V49.4H28.1833V56ZM41.711 56H39.575C39.695 55.064 39.815 54.296 39.959 53.576C40.559 50.72 41.471 49.568 43.607 48.944L39.623 43.544H42.119L46.151 49.016C48.431 48.296 48.527 46.592 48.695 45.464C48.791 44.84 48.887 44.048 48.959 43.544H51.143C51.071 44.144 50.975 44.768 50.855 45.416C50.231 48.464 49.295 49.616 47.039 50.216L51.311 56H48.839L44.471 50.096C42.287 50.864 42.239 52.712 42.023 53.936C41.879 54.776 41.807 55.328 41.711 56ZM58.7349 56H56.5029L60.8949 45.392H53.8149V39.104H55.9029V43.544H63.1749V45.248L58.7349 56ZM67.9996 56H65.4796V54.152H67.4956C68.5516 54.152 69.0076 54.152 69.4396 54.128L65.2156 43.544H67.5196L71.5516 53.744C72.6796 53.288 73.2076 52.304 73.5676 50.024C73.8076 48.512 73.9516 46.424 73.9516 44.48V43.544H76.0876C76.0876 44.672 76.0636 45.848 76.0156 46.88C75.9436 48.56 75.7996 49.928 75.5836 50.864C74.7676 54.728 72.8956 56 67.9996 56ZM90.2083 56H88.0963V48.248C88.0963 46.352 87.2563 45.392 85.6243 45.392H79.6963V43.544H86.0323C88.7443 43.544 90.2083 45.176 90.2083 48.2V56ZM81.8083 56H79.6963V49.4H81.8083V56ZM42.9348 156H40.8228V148.248C40.8228 146.352 39.9828 145.392 38.3508 145.392H32.4228V143.544H38.7588C41.4708 143.544 42.9348 145.176 42.9348 148.2V156ZM34.5348 156H32.4228V149.4H34.5348V156ZM54.1346 156H51.9026L55.8386 145.392H46.5266V143.544H58.0946V145.296L54.1346 156ZM48.8786 159.168H46.7666V149.4H48.8786V159.168ZM64.3441 151.512H62.2081V145.392H60.7201V143.544H64.3441V151.512ZM75.7623 156H73.6503V145.392H67.0503V143.544H78.3783V145.392H75.7623V156ZM91.1574 156H80.4294V154.152H87.0774V148.248C87.0774 146.472 86.3574 145.392 84.6054 145.392H80.5494V143.544H85.0134C87.7974 143.544 89.1894 145.2 89.1894 148.2V154.152H91.1574V156ZM40.0051 256H37.8931V248.248C37.8931 246.352 37.0531 245.392 35.4211 245.392H29.4931V243.544H35.8291C38.5411 243.544 40.0051 245.176 40.0051 248.2V256ZM31.6051 256H29.4931V249.4H31.6051V256ZM45.1329 256H42.9969C43.1169 255.064 43.2369 254.296 43.3809 253.576C43.9809 250.72 44.8929 249.568 47.0289 248.944L43.0449 243.544H45.5409L49.5729 249.016C51.8529 248.296 51.9489 246.592 52.1169 245.464C52.2129 244.84 52.3089 244.048 52.3809 243.544H54.5649C54.4929 244.144 54.3969 244.768 54.2769 245.416C53.6529 248.464 52.7169 249.616 50.4609 250.216L54.7329 256H52.2609L47.8929 250.096C45.7089 250.864 45.6609 252.712 45.4449 253.936C45.3009 254.776 45.2289 255.328 45.1329 256ZM67.0166 256H57.3686V254.152H64.3766L56.6966 243.544H59.0486L62.9126 248.872C64.8086 248.08 64.9286 246.52 65.0966 245.464C65.1926 244.84 65.2886 244.048 65.3606 243.544H67.4966C67.4246 244.144 67.3286 244.768 67.2086 245.416C66.6806 248.128 65.7686 249.352 63.7766 250.024L67.0166 254.488V256ZM73.6499 256H71.5139V245.392H70.0259V243.544H73.6499V256ZM78.4715 256.144C77.9195 256.144 77.4155 256.072 77.0075 255.928V254.176C77.5835 254.296 77.7995 254.32 78.1115 254.32C79.3595 254.32 79.8875 253.72 79.8875 252.304V245.392H77.0075V243.544H86.0315C88.7435 243.544 90.2075 245.152 90.2075 248.176V256H88.0955V248.248C88.0955 246.328 87.2795 245.392 85.6475 245.392H81.9755V252.496C81.9755 254.944 80.8235 256.144 78.4715 256.144Z" fill="#E3F0FA"/>
<path d="M130 42.6287L130 255.274" stroke="#E3F0FA" stroke-width="1.5"/>
<path d="M134.037 251.8C134.037 253.616 132.325 255.25 130 255.25C127.676 255.25 125.964 253.616 125.964 251.8C125.964 249.984 127.676 248.35 130 248.35C132.325 248.35 134.037 249.984 134.037 251.8Z" fill="#E3F0FA" stroke="#E3F0FA" stroke-width="1.5"/>
<path d="M134.037 147.137C134.037 149.063 132.298 150.742 130 150.742C127.702 150.741 125.964 149.062 125.964 147.137C125.964 145.212 127.702 143.533 130 143.533C132.298 143.533 134.037 145.212 134.037 147.137Z" fill="#1F1F1F" stroke="#E3F0FA" stroke-width="1.5"/>
<path d="M134.037 43.3545C134.037 45.28 132.298 46.959 130 46.959C127.702 46.9588 125.964 45.2799 125.964 43.3545C125.964 41.4291 127.702 39.7502 130 39.75C132.298 39.75 134.037 41.429 134.037 43.3545Z" fill="#1F1F1F" stroke="#E3F0FA" stroke-width="1.5"/>
</svg>
