<svg width="381" height="67" viewBox="0 0 381 67" fill="none" xmlns="http://www.w3.org/2000/svg">
<line x1="26.5" y1="9.5" x2="354.5" y2="9.5" stroke="white"/>
<circle cx="354.5" cy="9" r="9" fill="white"/>
<circle cx="354.5" cy="9" r="5" fill="white"/>
<circle cx="190.5" cy="9" r="9" fill="white"/>
<circle cx="26.5" cy="9" r="9" fill="white"/>
<path d="M26.2753 36.056C26.2753 34.568 25.5553 33.8 24.2113 33.8H17.8033V31.112H25.0033C27.9073 31.112 29.4913 32.84 29.4913 36.008V44H26.2753V36.056ZM17.8033 44V37.352H21.0193V44H17.8033ZM31.8495 44C32.0175 43.064 32.1375 42.2 32.3535 41.312C33.0255 38.456 33.9375 37.4 35.8335 36.704L31.7055 31.112H35.4735L39.2895 36.248C40.8495 35.624 40.9935 34.352 41.1855 33.032C41.2815 32.384 41.3535 31.712 41.4495 31.112H44.7615C44.6655 31.712 44.5455 32.432 44.4015 33.152C43.7775 36.152 42.7935 37.376 40.5615 37.976L45.0255 44H41.2575L37.1535 38.48C35.8575 39.176 35.7855 40.472 35.5695 41.624C35.4255 42.512 35.3055 43.184 35.2095 44H31.8495ZM46.9729 44V41.312H53.6449L46.0849 31.112H49.7569L53.3569 36.056C54.4609 35.48 54.6049 34.616 54.8929 33.032C54.9889 32.456 55.0609 31.832 55.1569 31.112H58.4449C58.3249 31.928 58.2049 32.576 58.0849 33.152C57.4849 35.888 56.5729 37.112 54.6529 37.784L57.5329 41.696V44H46.9729ZM62.1021 44V33.8H60.6381V31.112H65.3661V44H62.1021ZM69.9827 44.168C69.3347 44.168 68.7347 44.072 68.1827 43.904V41.36C68.6627 41.456 68.9267 41.48 69.2387 41.48C70.5347 41.48 71.0387 40.832 71.0387 39.248V33.8H68.1587V31.112H78.0707C80.9747 31.112 82.5587 32.84 82.5587 35.984V44H79.3427V36.056C79.3427 34.568 78.6467 33.8 77.3027 33.8H74.2547V39.68C74.2547 42.68 72.8387 44.168 69.9827 44.168Z" fill="white"/>
<path d="M96.75 37L106.75 42.7735V31.2265L96.75 37ZM119.75 37V36H105.75V37V38H119.75V37Z" fill="white"/>
<path d="M135.795 47.096V33.8H134.235V31.112H139.059V47.096H135.795ZM141.784 44V41.36H144.424C147.4 41.36 148.72 40.184 148.72 37.496C148.72 34.976 147.568 33.776 145.192 33.776H141.904V31.112H145.936C149.872 31.112 151.936 33.224 151.936 37.256C151.936 41.672 149.464 44 144.808 44H141.784ZM155.391 44V33.8H153.927V31.112H158.655V44H155.391ZM163.272 44.168C162.624 44.168 162.024 44.072 161.472 43.904V41.36C161.952 41.456 162.216 41.48 162.528 41.48C163.824 41.48 164.328 40.832 164.328 39.248V33.8H161.448V31.112H171.36C174.264 31.112 175.848 32.84 175.848 35.984V44H172.632V36.056C172.632 34.568 171.936 33.8 170.592 33.8H167.544V39.68C167.544 42.68 166.128 44.168 163.272 44.168ZM185.795 44.168C185.147 44.168 184.547 44.072 183.995 43.904V41.36C184.475 41.456 184.739 41.48 185.051 41.48C186.347 41.48 186.851 40.832 186.851 39.248V33.8H183.971V31.112H193.883C196.787 31.112 198.371 32.84 198.371 35.984V44H195.155V36.056C195.155 34.568 194.459 33.8 193.115 33.8H190.067V39.68C190.067 42.68 188.651 44.168 185.795 44.168ZM206.677 44L210.253 33.8H201.396V31.112H213.661V33.728L210.037 44H206.677ZM201.493 47.096V37.352H204.709V47.096H201.493ZM217.358 39.488V33.8H215.894V31.112H220.598V39.488H217.358ZM229.054 44V33.8H222.958V31.112H235.054V33.8H232.27V44H229.054ZM237.012 44V41.312H243.636V36.056C243.636 34.616 242.988 33.8 241.572 33.8H237.132V31.112H242.364C245.292 31.112 246.852 32.864 246.852 36.008V41.312H248.868V44H237.012Z" fill="white"/>
<path d="M262.25 37L272.25 42.7735V31.2265L262.25 37ZM285.25 37V36H271.25V37V38H285.25V37Z" fill="white"/>
<path d="M308.424 36.056C308.424 34.568 307.704 33.8 306.36 33.8H299.952V31.112H307.152C310.056 31.112 311.64 32.84 311.64 36.008V44H308.424V36.056ZM299.952 44V37.352H303.168V44H299.952ZM315.006 44V41.336H318.39C321.798 41.336 323.334 40.328 323.334 37.232C323.334 34.52 322.182 33.416 320.07 33.416C318.198 33.416 317.142 34.28 317.142 35.576C317.142 36.68 317.886 37.208 318.87 37.376V39.944C318.63 39.944 318.366 39.92 318.078 39.896C316.398 39.656 314.094 38.6 314.094 35.696C314.094 32.72 316.518 30.728 320.334 30.728C324.246 30.728 326.454 32.84 326.454 37.016C326.454 41.576 323.838 44 318.918 44H315.006ZM335.204 44.336C331.46 44.336 329.012 41.768 329.012 37.832V31.112H335.54C339.308 31.112 341.708 33.584 341.708 37.472C341.708 41.576 339.092 44.336 335.204 44.336ZM332.228 37.664C332.228 40.088 333.428 41.6 335.324 41.6C337.244 41.6 338.492 40.04 338.492 37.64C338.492 35.288 337.244 33.8 335.276 33.8H332.228V37.664ZM345.305 44V33.8H343.841V31.112H348.569V44H345.305ZM360.338 36.056C360.338 34.568 359.618 33.8 358.274 33.8H351.866V31.112H359.066C361.97 31.112 363.554 32.84 363.554 36.008V44H360.338V36.056ZM351.866 44V37.352H355.082V44H351.866Z" fill="white"/>
</svg>
