<svg width="360" height="19" viewBox="0 0 360 19" fill="none" xmlns="http://www.w3.org/2000/svg">
<path d="M20.4414 6.23071L335.904 6.23069" stroke="#1F1F1F" stroke-width="1.55769"/>
<circle cx="330.75" cy="6.23077" r="5.45192" fill="#E3F0FA" stroke="#1F1F1F" stroke-width="1.55769"/>
<path d="M175.48 0.779297C178.645 0.779297 181.162 3.24587 181.162 6.23047C181.162 9.2152 178.645 11.6826 175.48 11.6826C172.316 11.6826 169.8 9.21519 169.8 6.23047C169.8 3.24588 172.316 0.779314 175.48 0.779297Z" fill="#1F1F1F" stroke="#1F1F1F" stroke-width="1.55769"/>
<path d="M21.5176 0.779297C24.6818 0.779297 27.199 3.24587 27.1992 6.23047C27.1992 9.2152 24.682 11.6826 21.5176 11.6826C18.3532 11.6826 15.8369 9.21519 15.8369 6.23047C15.8371 3.24588 18.3533 0.779314 21.5176 0.779297Z" fill="#E3F0FA" stroke="#1F1F1F" stroke-width="1.55769"/>
</svg>
