<svg width="189" height="189" viewBox="0 0 189 189" fill="none" xmlns="http://www.w3.org/2000/svg">
<path d="M127.575 85.05C131.512 85.05 134.859 83.6719 137.616 80.9156C140.372 78.1594 141.75 74.8125 141.75 70.875C141.75 66.9375 140.372 63.5906 137.616 60.8344C134.859 58.0781 131.512 56.7 127.575 56.7C123.637 56.7 120.291 58.0781 117.534 60.8344C114.778 63.5906 113.4 66.9375 113.4 70.875C113.4 74.8125 114.778 78.1594 117.534 80.9156C120.291 83.6719 123.637 85.05 127.575 85.05ZM61.425 85.05C65.3625 85.05 68.7094 83.6719 71.4656 80.9156C74.2219 78.1594 75.6 74.8125 75.6 70.875C75.6 66.9375 74.2219 63.5906 71.4656 60.8344C68.7094 58.0781 65.3625 56.7 61.425 56.7C57.4875 56.7 54.1406 58.0781 51.3844 60.8344C48.6281 63.5906 47.25 66.9375 47.25 70.875C47.25 74.8125 48.6281 78.1594 51.3844 80.9156C54.1406 83.6719 57.4875 85.05 61.425 85.05ZM94.5 146.475C105.21 146.475 114.936 143.443 123.677 137.379C132.418 131.316 138.757 123.323 142.695 113.4H46.305C50.2425 123.323 56.5819 131.316 65.3231 137.379C74.0644 143.443 83.79 146.475 94.5 146.475ZM94.5 189C81.4275 189 69.1425 186.519 57.645 181.558C46.1475 176.597 36.1462 169.864 27.6412 161.359C19.1362 152.854 12.4031 142.852 7.44187 131.355C2.48063 119.857 0 107.573 0 94.5C0 81.4275 2.48063 69.1425 7.44187 57.645C12.4031 46.1475 19.1362 36.1462 27.6412 27.6412C36.1462 19.1362 46.1475 12.4031 57.645 7.44187C69.1425 2.48063 81.4275 0 94.5 0C107.573 0 119.857 2.48063 131.355 7.44187C142.852 12.4031 152.854 19.1362 161.359 27.6412C169.864 36.1462 176.597 46.1475 181.558 57.645C186.519 69.1425 189 81.4275 189 94.5C189 107.573 186.519 119.857 181.558 131.355C176.597 142.852 169.864 152.854 161.359 161.359C152.854 169.864 142.852 176.597 131.355 181.558C119.857 186.519 107.573 189 94.5 189ZM94.5 170.1C115.605 170.1 133.481 162.776 148.129 148.129C162.776 133.481 170.1 115.605 170.1 94.5C170.1 73.395 162.776 55.5187 148.129 40.8713C133.481 26.2238 115.605 18.9 94.5 18.9C73.395 18.9 55.5187 26.2238 40.8713 40.8713C26.2238 55.5187 18.9 73.395 18.9 94.5C18.9 115.605 26.2238 133.481 40.8713 148.129C55.5187 162.776 73.395 170.1 94.5 170.1Z" fill="#74D03C"/>
</svg>
