<svg width="436" height="364" viewBox="0 0 436 364" fill="none" xmlns="http://www.w3.org/2000/svg">
<path d="M58.7938 352.002L27.3722 272.403C23.8848 262.416 19.381 250.431 15.8936 239.954C12.8969 230.475 9.4095 220.488 6.4128 210.501L0.927601 196.028C0.419388 193.54 -0.561988 190.036 0.419388 187.04C1.41829 184.552 4.41499 182.554 8.4106 181.555C9.90019 181.555 11.4073 181.555 11.898 181.047H68.8354C74.3206 181.047 79.8233 181.047 82.82 183.045C87.3063 185.533 89.3041 191.034 91.8101 197.517C93.8079 204.508 96.2964 210.991 97.8035 215.985L107.757 248.662C109.247 253.147 112.752 255.653 116.239 255.653C118.728 255.653 121.725 253.655 123.232 249.17L200.112 12.4751C202.601 5.99227 205.597 3.99485 213.098 0.998712C215.586 0.490596 218.092 0 221.089 0C224.086 0.490596 226.574 0.490596 228.572 0.490596H268.528C274.521 0.490596 280.515 0.998712 283.512 3.97733C285.509 5.97475 286 8.46277 286 10.9683C286 14.9632 284.002 18.958 283.003 21.9541C281.005 27.4383 278.517 33.4306 276.519 39.4229C274.031 45.9057 272.033 53.4048 270.035 58.889C268.546 61.8851 268.037 63.8825 267.547 66.3706C266.057 69.3667 264.55 71.8547 264.042 74.3603L168.165 352.458C165.168 359.939 159.175 362.445 152.182 361.937H75.7751C67.7839 361.937 61.2998 357.942 58.7938 351.95V352.002Z" fill="#74D03C"/>
<path d="M228.078 150.16C227.038 150.16 225.598 150.16 225.118 149.6C224.398 148.8 224.478 147.6 224.478 146.24V110.88C224.478 110.48 224.398 110.08 224.478 109.68V109.44C224.478 107.52 223.998 106.88 222.878 106.88C221.998 106.88 221.198 106.88 220.558 106.72C220.078 106.48 219.838 106.08 219.678 105.2C219.678 104.72 219.598 104.4 219.678 103.92V99.6C219.678 98.56 219.678 97.2 219.998 96.72C220.558 96 221.358 96.08 222.238 96.08H235.038C235.358 96.08 235.598 96.08 235.918 96.16C237.998 96.72 237.838 98.32 237.838 99.76V145.68C237.838 147.92 238.238 149.52 236.158 150.08C235.678 150.16 235.358 150.24 234.878 150.16H228.078ZM249.761 140C248.241 140 247.281 140.08 246.401 139.44C245.841 139.04 245.841 138.08 245.841 137.2V131.2C245.841 129.6 246.881 129.36 247.921 129.36H254.961C264.001 129.36 268.241 126.4 268.241 118C268.241 117.68 268.241 116.56 268.161 115.92C268.161 115.36 268.081 114.64 267.921 114.08C267.841 113.68 267.841 113.36 267.681 113.04C267.521 112.8 267.441 112.48 267.361 112.24L266.881 111.36C265.441 108.72 262.721 106.88 257.521 106.88C257.441 106.96 257.201 106.96 257.121 106.88H248.401C247.681 106.88 247.201 106.8 246.801 106.4C246.241 105.84 246.241 104.88 246.241 103.68V100C246.241 99.6 246.241 99.2 246.161 98.8V98.48C246.161 98.32 246.161 98.08 246.241 97.84C246.561 96.48 247.281 96.08 248.961 96.08C249.681 96.16 250.401 96.08 251.041 96.08H261.841H262.481C263.121 96.08 264.561 96.24 265.601 96.48C266.081 96.48 267.041 96.64 268.721 97.04C272.881 98.48 275.681 100.24 277.841 103.12C278.321 103.52 278.561 104.16 278.801 104.48C280.401 107.28 281.521 110.96 281.521 113.84C281.601 114.4 281.601 115.28 281.601 115.92C281.601 116.88 281.601 118.32 281.521 119.36C281.521 122.72 280.161 126.96 278.321 130.24C278.081 130.64 277.761 131.36 277.201 131.76C274.641 135.2 271.361 137.2 266.561 138.96C264.561 139.36 263.441 139.6 262.881 139.6C262.641 139.6 262.001 139.76 261.601 139.84C260.801 139.92 260.001 140 259.201 140H258.481H256.881H249.761ZM296.438 140C295.398 140 293.958 140 293.478 139.44C292.758 138.64 292.838 137.44 292.838 136.08V110.88C292.838 110.48 292.758 110.08 292.838 109.68V109.44C292.838 107.52 292.358 106.88 291.238 106.88C290.358 106.88 289.558 106.88 288.918 106.72C288.438 106.48 288.198 106.08 288.038 105.2C288.038 104.72 287.958 104.4 288.038 103.92V99.6C288.038 98.56 288.038 97.2 288.358 96.72C288.918 96 289.717 96.08 290.598 96.08H303.158C303.638 96.08 303.878 96.08 304.278 96.16C306.358 96.72 306.198 98.32 306.198 99.76V135.52C306.198 137.76 306.598 139.36 304.518 139.92C304.038 140 303.718 140.08 303.238 140H296.438ZM319.409 140.56C318.289 140.56 317.009 140.56 315.649 140.24C314.609 140 314.209 139.84 314.129 139.28L313.889 137.84V131.04C313.889 130 314.769 129.52 315.649 129.68C316.129 129.76 316.769 129.76 317.329 129.76C320.929 129.76 323.409 128.56 323.409 121.76V110.72C323.409 110.32 323.329 110.08 323.409 109.68V109.36C323.409 109.12 323.409 108.88 323.329 108.64C323.089 107.68 322.769 107.2 321.889 106.96C321.569 106.8 320.289 106.88 320.529 106.88H318.289C316.049 106.88 314.449 107.28 313.889 105.2C313.809 104.72 313.729 104.4 313.809 103.92V99.6C313.809 98.56 313.809 97.2 314.369 96.72C315.169 96 316.369 96.08 317.729 96.08H348.769C353.169 96.08 355.649 97.12 358.129 98.56C358.849 98.96 359.809 99.68 360.289 100.32C360.609 100.56 360.849 100.8 361.089 101.12C361.729 102.08 362.449 102.88 362.929 103.84C363.249 104.48 364.129 106.88 364.209 107.68L364.289 108.24C364.369 108.72 364.449 109.2 364.449 109.76V110.72L364.529 136.56V138.08C364.449 139.12 364.049 139.68 363.409 139.76L362.369 140H361.649C361.409 140.08 360.929 140.08 360.449 140.08C360.049 140 359.569 140 359.169 140H354.369C354.209 139.92 354.049 139.92 353.889 140C353.569 140 353.409 140 353.249 139.92C351.889 139.68 351.329 138.96 351.329 137.84V115.2C351.329 112.72 351.329 110.48 350.209 109.04C349.409 107.84 348.209 107.12 346.449 106.96C346.209 106.88 345.889 106.88 345.649 106.88H337.809L337.489 106.96C337.009 107.04 336.769 107.28 336.609 107.84V123.76C336.609 124.48 336.689 124.72 336.609 125.36C336.609 127.68 336.289 129.68 335.569 131.44C335.489 131.92 335.249 132.4 335.009 132.8C333.569 135.76 331.729 137.6 328.929 139.04C328.449 139.28 327.489 139.68 327.009 139.76C324.689 140.4 322.049 140.56 319.409 140.56ZM410.42 140.08C410.02 140 409.54 140 409.14 140H404.34C404.18 139.92 404.02 139.92 403.86 140C403.54 140 403.38 140 403.22 139.92C401.86 139.68 401.3 138.96 401.3 137.84V115.2C401.3 112.72 401.3 110.48 400.18 109.04C399.38 107.84 398.18 107.12 396.42 106.96C396.18 106.88 395.86 106.88 395.62 106.88H377.22C374.98 106.88 373.38 107.28 372.82 105.2C372.74 104.72 372.66 104.4 372.74 103.92V99.6C372.74 98.56 372.74 97.2 373.3 96.72C374.1 96 375.3 96.08 376.66 96.08H398.74C403.14 96.08 405.62 97.12 408.1 98.56C408.82 98.96 409.78 99.68 410.26 100.32C410.58 100.56 410.82 100.8 411.06 101.12C411.7 102.08 412.42 102.88 412.9 103.84C413.22 104.56 413.46 105.28 413.7 106.08C413.78 106.32 413.78 106 413.94 106.8L414.18 107.68L414.26 108.24L414.34 108.8C414.42 109.2 414.42 110.32 414.42 110.72L414.5 136.56V138.08C414.42 139.12 414.02 139.68 413.38 139.76L412.34 140H411.62C411.38 140.08 410.9 140.08 410.42 140.08ZM372.98 136.08V119.84C372.98 118.72 373.54 118 374.9 117.76C375.06 117.68 375.22 117.68 375.54 117.68C375.7 117.76 375.86 117.76 376.02 117.68H380.74C381.14 117.68 381.62 117.68 382.02 117.6C382.5 117.6 382.98 117.6 383.22 117.68H383.94L384.98 117.92C385.62 118 386.02 118.56 386.1 119.6V135.52C386.1 137.76 386.5 139.36 384.42 139.92C384.02 140 383.7 140.08 383.22 140H376.42C375.38 140 374.1 140 373.62 139.44C372.9 138.64 372.98 137.44 372.98 136.08ZM238.529 212C237.729 212 237.089 211.28 237.249 210.48C237.729 207.84 238.209 205.2 238.849 202.4C240.289 195.76 241.889 190.24 248.049 187.12C248.609 186.88 248.849 186.4 248.849 185.92C248.849 185.6 248.769 185.36 248.609 185.12C248.289 184.56 247.889 184.08 247.489 183.6C247.089 183.12 246.689 182.64 246.369 182.16L243.489 178.4C242.609 177.12 241.729 175.92 240.689 174.64C240.209 174 239.729 173.36 239.169 172.72C239.009 172.4 238.689 172 238.529 171.76C238.209 171.44 238.049 171.04 237.889 170.64C237.649 170.32 237.489 169.92 237.489 169.52C237.489 168.88 238.049 168.16 238.929 168.08H250.209C250.929 168.08 251.649 168.4 252.129 169.04L263.169 183.92C263.409 184.24 263.809 184.32 264.209 184.16C267.329 182.16 267.809 179.04 268.449 174.48L269.169 169.44C269.249 168.64 269.889 168.08 270.689 168.08H281.329C282.129 168.08 282.769 168.72 282.609 169.6C282.289 171.36 281.969 173.44 281.569 175.28C280.049 182.96 277.969 188.56 270.929 191.44C270.289 191.68 269.969 192.16 269.969 192.72C269.969 193.04 270.129 193.28 270.289 193.6C270.609 194.16 272.049 196 272.449 196.48C272.849 196.96 273.249 197.44 273.569 197.92L276.449 201.68C277.329 202.96 278.209 204.16 279.249 205.44C279.729 206.08 280.209 206.72 280.769 207.36C280.929 207.68 281.249 208.08 281.409 208.32C281.729 208.64 281.889 209.04 282.049 209.44C282.289 209.76 282.449 210.16 282.449 210.56C282.449 211.28 282.049 212 281.089 212H269.729C269.009 212 268.289 211.6 267.809 211.04L255.809 195.04C255.729 194.96 255.649 194.8 255.409 194.8C255.249 194.8 254.929 195.04 254.769 195.2C253.009 197.2 252.689 200.16 252.129 203.36C251.649 206.08 251.329 208.32 250.929 210.64C250.849 211.44 250.209 212 249.409 212H238.529ZM291.36 212C290.32 211.92 289.76 211.52 289.68 210.88L289.44 209.76V209.12C289.36 208.88 289.36 208.4 289.36 207.92C289.44 207.44 289.44 206.96 289.44 206.56V203.92C289.52 203.76 289.52 203.6 289.44 203.44C289.44 203.2 289.44 202.96 289.52 202.8C289.68 201.76 290.24 201.12 291.36 201.12H307.44C308.48 201.12 309.04 200.4 309.04 199.6C309.04 199.28 308.96 198.88 308.72 198.56L301.84 189.28C300.08 186.88 298 184.08 297.6 183.6C297.2 183.12 296.8 182.64 296.48 182.16L293.6 178.4C292.88 177.44 292.32 176.48 290.8 174.64C290.32 174 289.84 173.36 289.28 172.72C289.04 172.24 288.56 171.6 288 170.64C287.76 170.32 287.6 169.92 287.6 169.52C287.6 168.88 288.16 168.16 289.04 168.08H299.84C300.56 168.08 301.28 168.4 301.76 169.04L312.08 182.88C312.32 183.2 312.64 183.2 313.04 183.04C314.96 181.2 315.36 178.4 315.92 174.48L316.64 169.52C316.72 168.72 317.52 168.08 318.32 168.08H329.12C329.44 168.08 330.56 168.24 330.32 169.6C330 171.36 329.68 173.44 329.2 175.28C327.92 181.84 326.08 187.52 320.4 190.64C319.76 190.96 319.44 191.6 319.44 192.16C319.44 192.48 319.52 192.88 319.76 193.2L324 199.04C324.24 199.36 324.96 200.32 325.12 200.48C325.44 200.8 325.6 201.2 325.92 201.6C326.32 202.16 326.56 203.28 326.64 204.24C326.72 205.68 326.64 206.64 326.64 207.68C326.64 210.16 326.08 211.44 324.64 211.76C324.48 212 323.44 212 322.88 212H291.36ZM363.355 212.8C361.515 212.8 359.995 212.56 359.915 212.56C358.635 212.4 358.155 211.84 358.155 210.4V202.64C358.155 201.92 358.635 201.52 359.275 201.44C360.155 201.44 361.195 201.6 362.475 201.6C366.715 201.6 370.235 199.76 371.515 194.8C371.915 193.12 372.155 191.36 372.155 189.84V188.72C372.155 188.32 371.995 186.88 371.835 186.16C371.595 185.52 371.515 185.04 371.355 184.4C371.115 183.68 370.795 182.96 370.395 182.24C370.315 182 370.155 181.76 369.995 181.6C369.835 181.12 369.275 180.56 368.955 180.24C367.675 179.12 366.235 178.4 364.155 178.32H363.835C360.715 178.32 358.075 179.76 356.235 183.28C354.875 185.92 353.915 189.76 353.675 191.52C353.435 192.96 351.995 204.64 351.595 207.28L351.115 210.56C351.035 211.44 350.635 212.08 349.515 212.24C349.435 212.32 349.275 212.32 349.035 212.32C348.875 212.24 348.795 212.24 348.635 212.32H340.955C339.995 212.32 338.715 212.32 338.315 211.92C337.995 211.6 337.915 211.2 337.915 210.72C337.915 210.32 337.995 209.92 337.995 209.44C338.475 205.12 339.755 196.16 340.635 190.88C341.195 187.44 341.515 185.76 341.595 185.04C341.675 184.72 341.675 184.4 341.675 184.08C341.675 183.28 341.435 182.56 341.115 181.92L336.635 173.52C336.395 173.04 336.475 173.28 335.115 170.88C334.955 170.64 334.875 170.32 334.875 170.08C334.875 169.04 335.835 168 336.875 168H337.755C338.075 167.92 338.315 167.92 338.715 167.92C339.595 167.92 340.395 168 340.875 168H344.795C345.675 168 346.715 168 347.435 168.08C348.875 168.4 349.275 169.12 349.915 170.32C350.315 171.12 351.035 172.08 351.115 172.24C351.435 172.64 351.915 172.72 352.235 172.8H352.395C352.715 172.8 353.195 172.56 353.595 172.24C354.795 171.12 357.755 168.48 360.235 168.08C360.795 168 360.955 168.08 361.435 168C361.675 168 361.915 167.76 362.075 167.76C363.115 167.6 363.435 167.52 364.315 167.52H364.635H364.955C370.155 167.28 373.515 168.48 376.715 170.56C377.755 171.2 378.955 172.16 379.515 172.8C379.835 173.2 380.235 173.52 380.475 173.84C381.675 175.44 382.555 176.72 382.795 177.28C382.955 177.68 383.435 179.2 383.835 180.16C383.915 180.32 384.075 180.88 384.075 181.04C384.075 181.28 384.315 182.08 384.395 182.24C384.395 182.48 384.475 182.72 384.475 182.96C384.555 183.44 384.635 183.36 384.635 183.52L384.715 184.16C384.955 185.44 385.195 186.96 385.195 188.08C385.275 188.72 385.275 189.28 385.275 189.84C385.275 194.56 384.315 198.48 382.555 201.92C382.315 202.48 382.075 203.2 381.595 203.68C379.355 207.44 376.475 209.76 372.075 211.52C371.515 211.68 370.955 211.92 370.395 211.92C370.155 211.92 369.115 212.24 368.795 212.32C367.755 212.48 366.475 212.8 365.435 212.8H364.395H363.355ZM392.608 212C391.888 212 391.328 211.92 390.848 211.36C390.528 210.88 390.528 209.52 390.528 208.48V204.08C390.448 203.6 390.528 203.28 390.528 202.8C390.688 201.92 390.928 201.52 391.408 201.28C391.648 201.2 392.608 201.2 393.808 201.2H395.968C396.768 201.2 397.568 201.12 398.128 200.88C398.288 200.8 398.448 200.8 398.608 200.72L398.928 200.48C400.288 199.68 400.928 198.24 400.928 196V182.88C400.928 182.48 400.848 182.08 400.928 181.68V181.44C400.928 179.52 400.448 178.88 399.328 178.88H394.608C393.408 178.88 392.448 178.88 392.208 178.8C391.728 178.56 391.488 178.16 391.328 177.28C391.328 176.8 391.248 176.48 391.328 176V171.6C391.328 170.56 391.328 169.2 391.648 168.72C392.208 168 393.008 168.08 393.888 168.08H411.328C411.648 168.08 411.888 168.08 412.208 168.16C414.288 168.72 414.128 170.32 414.128 171.76V197.92L414.048 199.12V199.68C414.048 199.84 413.968 200.08 413.968 200.32C413.968 201.36 413.408 203.52 412.848 204.64C411.168 208.16 408.048 210.56 404.688 211.44C404.048 211.6 403.568 211.68 402.928 211.76C402.848 211.84 402.688 211.84 402.608 211.84C402.448 211.84 402.288 211.84 402.128 211.92L400.848 212H392.608Z" fill="#E3F0FA"/>
<path d="M272.219 294.16C271.179 294.16 269.739 294.16 269.259 293.6C268.539 292.8 268.619 291.6 268.619 290.24V254.88C268.619 254.48 268.539 254.08 268.619 253.68V253.44C268.619 251.52 268.139 250.88 267.019 250.88C266.139 250.88 265.339 250.88 264.699 250.72C264.219 250.48 263.979 250.08 263.819 249.2C263.819 248.72 263.739 248.4 263.819 247.92V243.6C263.819 242.56 263.819 241.2 264.139 240.72C264.699 240 265.499 240.08 266.379 240.08H279.179C279.499 240.08 279.739 240.08 280.059 240.16C282.139 240.72 281.979 242.32 281.979 243.76V289.68C281.979 291.92 282.379 293.52 280.299 294.08C279.819 294.16 279.499 294.24 279.019 294.16H272.219ZM298.381 268.88C297.341 268.88 295.901 268.88 295.421 268.32C294.701 267.52 294.781 266.32 294.781 264.96V254.88C294.781 254.48 294.701 254.08 294.781 253.68V253.44C294.781 251.52 294.301 250.88 293.181 250.88C292.301 250.88 291.501 250.88 290.861 250.72C290.381 250.48 290.141 250.08 289.981 249.2C289.981 248.72 289.901 248.4 289.981 247.92V243.6C289.981 242.56 289.981 241.2 290.301 240.72C290.861 240 291.661 240.08 292.541 240.08H305.181C305.501 240.08 305.741 240.08 306.061 240.16C308.141 240.72 307.981 242.32 307.981 243.76V264.4C307.981 266.64 308.381 268.24 306.301 268.8C305.821 268.88 305.501 268.96 305.021 268.88H298.381ZM343.277 284.8C341.437 284.8 339.917 284.56 339.837 284.56C338.557 284.4 338.077 283.84 338.077 282.4V274.64C338.077 273.92 338.557 273.52 339.197 273.44C340.077 273.44 341.117 273.6 342.397 273.6C346.637 273.6 350.157 271.76 351.437 266.8C351.837 265.12 352.077 263.36 352.077 261.84V260.72C352.077 260.32 351.917 258.88 351.757 258.16C351.517 257.52 351.437 257.04 351.277 256.4C351.037 255.68 350.717 254.96 350.317 254.24C350.237 254 350.077 253.76 349.917 253.6C349.757 253.12 349.197 252.56 348.877 252.24C347.597 251.12 346.157 250.4 344.077 250.32H343.757C340.637 250.32 337.997 251.76 336.157 255.28C334.797 257.92 333.837 261.76 333.597 263.52C333.357 264.96 331.917 276.64 331.517 279.28L331.037 282.56C330.957 283.44 330.557 284.08 329.437 284.24C329.357 284.32 329.197 284.32 328.957 284.32C328.797 284.24 328.717 284.24 328.557 284.32H320.877C319.917 284.32 318.637 284.32 318.237 283.92C317.917 283.6 317.837 283.2 317.837 282.72C317.837 282.32 317.917 281.92 317.917 281.44C318.397 277.12 319.677 268.16 320.557 262.88C321.117 259.44 321.437 257.76 321.517 257.04C321.597 256.72 321.597 256.4 321.597 256.08C321.597 255.28 321.357 254.56 321.037 253.92L316.557 245.52C316.317 245.04 316.397 245.28 315.037 242.88C314.877 242.64 314.797 242.32 314.797 242.08C314.797 241.04 315.757 240 316.797 240H317.677C317.997 239.92 318.237 239.92 318.637 239.92C319.517 239.92 320.317 240 320.797 240H324.717C325.597 240 326.637 240 327.357 240.08C328.797 240.4 329.197 241.12 329.837 242.32C330.237 243.12 330.957 244.08 331.037 244.24C331.357 244.64 331.837 244.72 332.157 244.8H332.317C332.637 244.8 333.117 244.56 333.517 244.24C334.717 243.12 337.677 240.48 340.157 240.08C340.717 240 340.877 240.08 341.357 240C341.597 240 341.837 239.76 341.997 239.76C343.037 239.6 343.357 239.52 344.237 239.52H344.557H344.877C350.077 239.28 353.437 240.48 356.637 242.56C357.677 243.2 358.877 244.16 359.437 244.8C359.757 245.2 360.157 245.52 360.397 245.84C361.597 247.44 362.477 248.72 362.717 249.28C362.877 249.68 363.357 251.2 363.757 252.16C363.837 252.32 363.997 252.88 363.997 253.04C363.997 253.28 364.237 254.08 364.317 254.24C364.317 254.48 364.397 254.72 364.397 254.96C364.477 255.44 364.557 255.36 364.557 255.52L364.637 256.16C364.877 257.44 365.117 258.96 365.117 260.08C365.197 260.72 365.197 261.28 365.197 261.84C365.197 266.56 364.237 270.48 362.477 273.92C362.237 274.48 361.997 275.2 361.517 275.68C359.277 279.44 356.397 281.76 351.997 283.52C351.437 283.68 350.877 283.92 350.317 283.92C350.077 283.92 349.037 284.24 348.717 284.32C347.677 284.48 346.397 284.8 345.357 284.8H344.317H343.277ZM371.029 284C370.229 284 369.589 283.28 369.749 282.48C370.229 279.84 370.709 277.2 371.349 274.4C372.789 267.76 374.389 262.24 380.549 259.12C381.109 258.88 381.349 258.4 381.349 257.92C381.349 257.6 381.269 257.36 381.109 257.12C380.789 256.56 380.389 256.08 379.989 255.6C379.589 255.12 379.189 254.64 378.869 254.16L375.989 250.4C375.109 249.12 374.229 247.92 373.189 246.64C372.709 246 372.229 245.36 371.669 244.72C371.509 244.4 371.189 244 371.029 243.76C370.709 243.44 370.549 243.04 370.389 242.64C370.149 242.32 369.989 241.92 369.989 241.52C369.989 240.88 370.549 240.16 371.429 240.08H382.709C383.429 240.08 384.149 240.4 384.629 241.04L395.669 255.92C395.909 256.24 396.309 256.32 396.709 256.16C399.829 254.16 400.309 251.04 400.949 246.48L401.669 241.44C401.749 240.64 402.389 240.08 403.189 240.08H413.829C414.629 240.08 415.269 240.72 415.109 241.6C414.789 243.36 414.469 245.44 414.069 247.28C412.549 254.96 410.469 260.56 403.429 263.44C402.789 263.68 402.469 264.16 402.469 264.72C402.469 265.04 402.629 265.28 402.789 265.6C403.109 266.16 404.549 268 404.949 268.48C405.349 268.96 405.749 269.44 406.069 269.92L408.949 273.68C409.829 274.96 410.709 276.16 411.749 277.44C412.229 278.08 412.709 278.72 413.269 279.36C413.429 279.68 413.749 280.08 413.909 280.32C414.229 280.64 414.389 281.04 414.549 281.44C414.789 281.76 414.949 282.16 414.949 282.56C414.949 283.28 414.549 284 413.589 284H402.229C401.509 284 400.789 283.6 400.309 283.04L388.309 267.04C388.229 266.96 388.149 266.8 387.909 266.8C387.749 266.8 387.429 267.04 387.269 267.2C385.509 269.2 385.189 272.16 384.629 275.36C384.149 278.08 383.829 280.32 383.429 282.64C383.349 283.44 382.709 284 381.909 284H371.029Z" fill="#74D03C"/>
</svg>
