<svg width="241" height="362" viewBox="0 0 241 362" fill="none" xmlns="http://www.w3.org/2000/svg">
<path d="M13.7938 352.002L-17.6278 272.403C-21.1152 262.416 -25.619 250.432 -29.1064 239.954C-32.1031 230.475 -35.5905 220.488 -38.5872 210.501L-44.0724 196.028C-44.5806 193.54 -45.562 190.036 -44.5806 187.04C-43.5817 184.552 -40.585 182.554 -36.5894 181.555C-35.0998 181.555 -33.5927 181.555 -33.102 181.047H23.8354C29.3205 181.047 34.8233 181.047 37.82 183.045C42.3063 185.533 44.3041 191.034 46.8101 197.517C48.8079 204.508 51.2964 210.991 52.8035 215.985L62.7575 248.662C64.247 253.147 67.752 255.653 71.2394 255.653C73.7279 255.653 76.7245 253.655 78.2317 249.17L155.112 12.4751C157.601 5.99227 160.597 3.99485 168.098 0.998712C170.586 0.490596 173.092 0 176.089 0C179.086 0.490596 181.574 0.490596 183.572 0.490596H223.528C229.521 0.490596 235.515 0.998712 238.512 3.97733C240.509 5.97475 241 8.46277 241 10.9683C241 14.9632 239.002 18.958 238.003 21.9541C236.005 27.4383 233.517 33.4306 231.519 39.4229C229.031 45.9057 227.033 53.4048 225.035 58.889C223.546 61.8851 223.037 63.8825 222.547 66.3706C221.057 69.3667 219.55 71.8547 219.042 74.3603L123.165 352.458C120.168 359.939 114.175 362.445 107.182 361.937H30.7751C22.7839 361.937 16.2998 357.942 13.7938 351.95V352.002Z" fill="#74D03C"/>
</svg>
