<svg width="27" height="35" viewBox="0 0 27 35" fill="none" xmlns="http://www.w3.org/2000/svg">
<path d="M5.55046 34.0334L2.58409 26.3373C2.25486 25.3717 1.82967 24.213 1.50044 23.2C1.21754 22.2835 0.888309 21.3179 0.605404 20.3523L0.0875707 18.953C0.0395926 18.7124 -0.0530549 18.3736 0.0395926 18.0839C0.133894 17.8434 0.4168 17.6503 0.794008 17.5537C0.934633 17.5537 1.07691 17.5537 1.12324 17.5046H6.49844C7.01628 17.5046 7.53576 17.5046 7.81867 17.6977C8.2422 17.9382 8.4308 18.4702 8.66739 19.097C8.85599 19.7729 9.09092 20.3997 9.2332 20.8825L10.1729 24.0419C10.3135 24.4756 10.6444 24.7178 10.9736 24.7178C11.2086 24.7178 11.4915 24.5247 11.6338 24.091L18.8917 1.20616C19.1266 0.579363 19.4095 0.386242 20.1176 0.0965606C20.3525 0.0474333 20.5891 0 20.872 0C21.1549 0.0474333 21.3899 0.0474333 21.5785 0.0474333H25.3505C25.9164 0.0474333 26.4822 0.0965606 26.7651 0.384548C26.9537 0.57767 27 0.818224 27 1.06047C27 1.44671 26.8114 1.83296 26.7171 2.12264C26.5285 2.65288 26.2936 3.23224 26.105 3.8116C25.87 4.4384 25.6814 5.16345 25.4928 5.69369C25.3522 5.98337 25.3042 6.17649 25.2579 6.41704C25.1173 6.70673 24.975 6.94728 24.927 7.18953L15.8757 34.0774C15.5928 34.8008 15.027 35.043 14.3669 34.9939H7.15359C6.39918 34.9939 5.78704 34.6077 5.55046 34.0283V34.0334Z" fill="#74D03C"/>
</svg>
