<svg width="30" height="30" viewBox="0 0 30 30" fill="none" xmlns="http://www.w3.org/2000/svg">
<path d="M11.25 5L7.5 5L7.5 8.75L5 8.75L5 5C5 4.3125 5.24479 3.72396 5.73438 3.23438C6.22396 2.74479 6.8125 2.5 7.5 2.5L11.25 2.5L11.25 5ZM11.25 27.5L7.5 27.5C6.8125 27.5 6.22396 27.2552 5.73438 26.7656C5.24479 26.276 5 25.6875 5 25L5 21.25L7.5 21.25L7.5 25L11.25 25L11.25 27.5ZM25 8.75L22.5 8.75L22.5 5L18.75 5L18.75 2.5L22.5 2.5C23.1875 2.5 23.776 2.74479 24.2656 3.23438C24.7552 3.72396 25 4.3125 25 5L25 8.75ZM25 25C25 25.6875 24.7552 26.276 24.2656 26.7656C23.776 27.2552 23.1875 27.5 22.5 27.5L18.75 27.5L18.75 25L22.5 25L22.5 21.25L25 21.25L25 25ZM20 22.5L10 22.5L10 7.5L20 7.5L20 22.5ZM17.5 20L17.5 10L12.5 10L12.5 20L17.5 20Z" fill="#1F1F1F"/>
</svg>
