<svg width="263" height="73" viewBox="0 0 263 73" fill="none" xmlns="http://www.w3.org/2000/svg">
<g opacity="0.6">
<path d="M0.787827 47.135V39.9729H0V36.9648H4.64639V47.135H0.787827Z" fill="#E3F0FA"/>
<path d="M11.773 54.0282H7.97707L10.5465 39.8831H5.81055V34.064H9.23043V36.9556H14.5214V39.4982L11.773 54.0193V54.0282Z" fill="#E3F0FA"/>
<path d="M25.9444 44.5923C25.8907 45.586 25.6848 46.2306 24.897 46.8752L23.6436 47.663L26.1235 54.0373H22.3544L19.2031 45.21L19.409 54.0373H15.8996L16.016 45.8277C16.0429 44.6908 16.2756 44.0462 17.0097 43.3479L17.9408 42.7033L15.4609 36.9736H19.3732L22.7931 45.4786L22.7036 36.9736H26.2667L25.9444 44.6012V44.5923Z" fill="#E3F0FA"/>
<path d="M31.4413 54.0285V39.8834H27.4395V36.9648H35.2998V54.0285H31.4413Z" fill="#E3F0FA"/>
<path d="M46.9291 54.0285H36.9648V36.9648H40.4743V51.1099H46.0249C47.0723 51.1099 47.6005 50.6175 47.6005 49.5343V36.9648H51.3158V49.2657C51.3158 51.5486 48.7106 54.0285 46.9291 54.0285ZM44.8789 49.0329L43.536 50.0535L42.0499 49.203L42.3991 47.7438V36.9648H45.7294V47.2782C45.7294 48.1287 45.4698 48.5942 44.8789 49.0329Z" fill="#E3F0FA"/>
<path d="M53.322 47.135V39.9729H52.5342V36.9648H57.1806V47.135H53.322Z" fill="#E3F0FA"/>
<path d="M64.6916 54.0285V39.8834H58.6396V36.9648H68.5412V54.0285H64.6826H64.6916ZM58.6396 54.0285V42.4886H62.3192V54.0285H58.6396Z" fill="#E3F0FA"/>
<path d="M83.8319 51.1636C83.805 52.6856 82.4263 54.0285 80.9133 54.0285H74.1094V36.9648H77.9679V51.6292H79.3377C79.7764 51.5665 80.0987 51.28 80.0987 50.7787L80.1882 39.8834H79.4004V36.9648H83.9572L83.8408 51.1636H83.8319Z" fill="#E3F0FA"/>
<path d="M85.2559 54.0283V51.1098H86.742V39.8922H85.6945V36.9736H90.6005V54.0373H85.2559V54.0283Z" fill="#E3F0FA"/>
<path d="M96.0077 54.0285V39.8834H92.0059V36.9648H99.8662V54.0285H96.0077Z" fill="#E3F0FA"/>
<path d="M111.056 51.1636C111.03 52.6856 109.651 54.0285 108.138 54.0285H101.334V36.9648H105.193V51.6292H106.562C107.001 51.5665 107.323 51.28 107.323 50.7787L107.413 39.8834H106.625V36.9648H111.182L111.065 51.1636H111.056Z" fill="#E3F0FA"/>
<path d="M112.489 54.0283V51.1098H113.975V39.8922H112.928V36.9736H117.834V54.0373H112.489V54.0283Z" fill="#E3F0FA"/>
<path d="M119.938 47.135V39.9729H119.15V36.9648H123.797V47.135H119.938Z" fill="#E3F0FA"/>
<path d="M135.516 44.5923C135.462 45.586 135.256 46.2306 134.468 46.8752L133.215 47.663L135.695 54.0373H131.926L128.774 45.21L128.98 54.0373H125.471L125.587 45.8277C125.614 44.6908 125.847 44.0462 126.581 43.3479L127.512 42.7033L125.032 36.9736H128.945L132.364 45.4786L132.275 36.9736H135.838L135.516 44.6012V44.5923Z" fill="#E3F0FA"/>
<path d="M143.107 54.0285V39.8834H137.055V36.9648H146.956V54.0285H143.098H143.107ZM137.064 54.0285V42.4886H140.743V54.0285H137.064Z" fill="#E3F0FA"/>
<path d="M160.028 39.8834V54.0285H156.169V39.8834H152.517V36.9648H161.371V39.8834H160.028Z" fill="#E3F0FA"/>
<path d="M163.385 54.0285V39.8834H162.597V36.9648H167.243V54.0285H163.385Z" fill="#E3F0FA"/>
<path d="M173.349 54.0283L172.857 50.6353L171.308 53.4732C171.102 53.8851 170.842 54.0283 170.198 54.0283H168.031V51.1098H169.052L171.451 46.8752V39.8922H169.141V36.9736H175.31V47.9585L176.044 54.0373H173.358L173.349 54.0283Z" fill="#E3F0FA"/>
<path d="M178.175 47.135V39.9729H177.387V36.9648H182.033V47.135H178.175Z" fill="#E3F0FA"/>
<path d="M193.743 44.5923C193.69 45.586 193.484 46.2306 192.696 46.8752L191.442 47.663L193.922 54.0373H190.153L187.002 45.21L187.208 54.0373H183.698L183.815 45.8277C183.842 44.6908 184.074 44.0462 184.809 43.3479L185.74 42.7033L183.26 36.9736H187.172L190.592 45.4786L190.502 36.9736H194.066L193.743 44.6012V44.5923Z" fill="#E3F0FA"/>
<path d="M257.437 44.2825C257.437 56.5549 247.491 66.501 235.219 66.501C222.946 66.501 213 56.5549 213 44.2825C213 32.0101 222.953 22.064 235.226 22.064C247.498 22.064 257.444 32.0101 257.444 44.2825H257.437ZM234.57 31.9538C230.045 32.6798 231.151 38.8336 236.156 37.8044C240.308 36.9515 239.131 31.2207 234.57 31.9538ZM241.908 33.1521V56.2306H248.428V33.1521H241.908ZM232.371 40.18V56.2377H238.644V40.18H232.371ZM225.047 50.7676C220.994 51.0848 221.12 56.6817 225.477 56.6817C230.122 56.6817 229.889 50.387 225.047 50.7676Z" fill="#E3F0FA"/>
</g>
<path opacity="0.6" d="M74.6571 15.744H73.3131V3.96796H73.8411L74.6731 4.87996C75.2971 4.14396 76.1611 3.75996 77.1851 3.75996C79.3131 3.75996 80.7691 5.45596 80.7691 7.93596C80.7691 10.496 79.2171 12.272 76.9931 12.256C76.0971 12.256 75.2811 11.952 74.6571 11.376V15.744ZM77.0091 11.072C78.4491 11.072 79.3771 9.87196 79.3771 8.03196C79.3771 6.15996 78.4331 4.94396 76.9771 4.94396C75.5371 4.94396 74.6091 6.14396 74.6091 7.98396C74.6091 9.85596 75.5531 11.072 77.0091 11.072ZM86.4105 12.272C83.9465 12.272 82.3625 10.64 82.3625 8.12796C82.3625 5.51996 84.0745 3.75996 86.6025 3.75996C89.0665 3.75996 90.6505 5.39196 90.6505 7.90396C90.6505 10.512 88.9385 12.272 86.4105 12.272ZM86.4905 11.072C88.1865 11.072 89.2745 9.85596 89.2745 7.98396C89.2745 6.12796 88.2025 4.95996 86.5225 4.95996C84.8265 4.95996 83.7385 6.17596 83.7385 8.04796C83.7385 9.90396 84.7945 11.072 86.4905 11.072ZM100.991 10.8L103.007 3.96796H104.223L101.759 12.064H100.047L97.871 5.18396L95.855 12.064H94.127L91.535 3.96796H92.927L95.071 10.768L97.055 3.96796H98.783L100.991 10.8ZM108.809 12.256C106.569 12.256 105.113 10.624 105.113 8.11196C105.113 5.50396 106.681 3.74396 108.985 3.74396C111.209 3.74396 112.633 5.34396 112.633 7.85596C112.633 8.04796 112.633 8.22396 112.617 8.41596H106.409C106.521 10.064 107.449 11.088 108.873 11.088C109.929 11.088 110.729 10.528 111.033 9.61596H112.392C111.881 11.232 110.585 12.256 108.809 12.256ZM106.457 7.29596H111.305C111.225 5.82396 110.297 4.91196 108.905 4.91196C107.481 4.91196 106.553 5.85596 106.457 7.29596ZM116.142 12.064H114.798V3.96796H115.678L116.222 4.95996C116.638 4.19196 117.342 3.75996 118.238 3.75996C118.51 3.75996 118.75 3.79196 118.942 3.87196V5.35996C118.67 5.16796 118.35 5.07196 117.982 5.07196C116.846 5.07196 116.142 6.01596 116.142 7.55196V12.064ZM123.684 12.256C121.444 12.256 119.988 10.624 119.988 8.11196C119.988 5.50396 121.556 3.74396 123.86 3.74396C126.084 3.74396 127.508 5.34396 127.508 7.85596C127.508 8.04796 127.508 8.22396 127.492 8.41596H121.284C121.396 10.064 122.324 11.088 123.748 11.088C124.804 11.088 125.604 10.528 125.908 9.61596H127.267C126.756 11.232 125.46 12.256 123.684 12.256ZM121.332 7.29596H126.18C126.1 5.82396 125.172 4.91196 123.78 4.91196C122.356 4.91196 121.428 5.85596 121.332 7.29596ZM132.775 12.272C130.663 12.272 129.191 10.592 129.191 8.09596C129.191 5.55196 130.727 3.75996 132.967 3.77596C133.895 3.77596 134.695 4.09596 135.303 4.65596V-3.52859e-05H136.647V12.064H136.119L135.287 11.152C134.679 11.856 133.815 12.272 132.775 12.272ZM132.983 11.088C134.407 11.088 135.351 9.90396 135.351 8.04796C135.351 6.19196 134.407 4.95996 132.951 4.95996C131.527 4.95996 130.583 6.14396 130.583 7.99996C130.583 9.85596 131.527 11.088 132.983 11.088ZM146.728 12.256C145.768 12.256 144.952 11.936 144.312 11.312L143.576 12.064H143.048V-3.52859e-05H144.392V4.89596C145.016 4.15996 145.896 3.75996 146.92 3.75996C149.048 3.75996 150.503 5.48796 150.503 7.93596C150.503 10.496 148.952 12.272 146.728 12.256ZM146.728 11.072C148.184 11.072 149.112 9.88796 149.112 8.01596C149.112 6.17596 148.152 4.94396 146.728 4.94396C145.272 4.94396 144.344 6.12796 144.344 7.99996C144.344 9.83996 145.304 11.072 146.728 11.072ZM154.611 15.744H153.315L154.707 12.144L151.379 3.96796H152.835L155.395 10.384L157.763 3.96796H159.123L154.611 15.744ZM162.728 5.74396H160.968V3.96796H162.728V5.74396ZM162.728 12.064H160.968V10.304H162.728V12.064Z" fill="#E3F0FA"/>
</svg>
