<svg width="393" height="227" viewBox="0 0 393 227" fill="none" xmlns="http://www.w3.org/2000/svg">
<path d="M196.5 165.722C193.761 165.722 191.465 164.721 189.613 162.719C187.76 160.718 186.833 158.237 186.833 155.278C186.833 152.319 187.76 149.838 189.613 147.836C191.465 145.834 193.761 144.833 196.5 144.833C199.239 144.833 201.535 145.834 203.387 147.836C205.24 149.838 206.167 152.319 206.167 155.278C206.167 158.237 205.24 160.718 203.387 162.719C201.535 164.721 199.239 165.722 196.5 165.722ZM186.833 123.944V19.5H206.167V123.944H186.833ZM128.833 207.5C123.517 207.5 118.965 205.455 115.179 201.364C111.393 197.273 109.5 192.356 109.5 186.611V155.278H128.833V186.611H264.167V155.278H283.5V186.611C283.5 192.356 281.607 197.273 277.821 201.364C274.035 205.455 269.483 207.5 264.167 207.5H128.833Z" fill="#FF9000"/>
</svg>
