<svg width="393" height="325" viewBox="0 0 393 325" fill="none" xmlns="http://www.w3.org/2000/svg">
<path d="M1.3355 280.874L2.67101 275.061C2.67101 273.211 3.20521 271.89 3.47231 271.626C8.28013 260.264 14.9577 253.13 26.9772 248.638C29.6482 246.789 32.3192 246.525 34.456 245.996C34.9902 245.468 35.2573 245.468 36.5928 245.468C37.127 245.468 37.3941 245.996 37.9283 245.468C60.0977 244.675 72.1173 255.244 78.7948 271.362C80.6645 274.533 82 279.817 82 285.366C82 289.858 81.1987 294.085 79.8632 297.785C76.3909 307.033 66.5081 318.394 54.4886 323.415C53.1531 323.943 51.0163 324.207 49.9479 324.207C48.6124 324.207 47.2769 325 44.6059 325C28.5798 325 28.5798 323.679 24.5733 321.565C10.684 313.638 6.67752 309.675 1.86971 295.142C1.0684 292.5 0 289.065 0 285.894C0 284.045 0 281.931 0.801303 280.61L1.3355 280.874ZM18.43 208.74C16.5603 206.626 16.5603 202.663 16.2932 197.642L4.00651 90.6302C2.67101 78.2115 1.86971 71.6058 1.86971 55.7521V12.683C1.86971 6.34156 5.07492 2.37815 12.5537 1.05701C13.355 0.528555 14.4235 0.528555 16.0261 0.528555C16.8274 1.05701 17.8958 1.05701 18.6971 0.528555H48.6124C50.7492 0.528555 53.4202 0.528555 55.8241 9.98478e-05C58.4951 9.98478e-05 61.1661 9.98478e-05 62.5016 0.528555H66.5081L72.3844 1.84969C75.8567 2.37815 78.2606 5.28465 78.5277 11.0977V62.0936C78.5277 68.1708 77.9935 74.7765 77.1922 81.118L64.6384 195.264C64.1042 200.549 64.1042 205.305 61.9674 207.947C61.1661 208.74 59.8306 209.797 57.9609 210.061C56.6254 210.061 55.2899 210.59 53.9544 210.061H27.7785C24.3062 210.061 20.2997 210.061 18.43 208.211V208.74Z" fill="#FF9000"/>
<path d="M123.119 99H109.919V55.08H137.439C147.519 55.08 153.119 61.08 153.119 71.88V99H139.919V72.12C139.919 68.04 137.919 65.88 133.999 65.88H123.119V99ZM179.057 99H165.697V65.88H160.897V55.08H179.057V99ZM209.379 100.12C196.179 100.12 187.859 91.72 187.859 78.36V55.08H201.059V77.56C201.059 84.84 204.259 89.08 209.779 89.08C215.619 89.08 219.539 84.36 219.539 77.32C219.539 71.88 219.299 70.04 218.419 68.44C217.379 66.52 215.379 65.56 212.499 65.56C211.139 65.56 209.299 65.96 207.299 66.6V56.44C211.459 55.24 215.139 54.68 218.179 54.68C223.699 54.68 228.019 57 230.419 61.24C232.739 65.56 232.659 71.24 232.659 76.44C232.659 90.52 223.219 100.12 209.379 100.12ZM280.241 99H238.241V88.2H260.241V72.12C260.241 68.04 258.241 65.88 254.321 65.88H238.641V55.08H257.761C267.841 55.08 273.441 61.08 273.441 71.88V88.2H280.241V99ZM316.206 99H302.366C302.926 95.88 303.406 92.76 304.286 89.4C306.686 79.88 309.646 76.68 315.486 74.12L301.406 55.08H316.846L329.006 71.48C332.686 69.56 333.166 66.28 333.886 61.48L334.766 55.08H348.286C347.966 57.08 347.566 59.64 347.006 62.28C344.926 72.2 341.566 76.44 334.126 78.44L349.406 99H333.966L320.926 81.48C318.526 83.56 318.206 86.76 317.566 90.36C317.006 93.4 316.606 95.96 316.206 99ZM377.649 99H363.809L375.809 65.88H355.009V41.08H368.049V55.08H389.809V65.24L377.649 99Z" fill="#FF9000"/>
<path d="M149.526 181.16H136.166V137.88H131.366V127.08H149.526V181.16ZM168.808 171H157.528V160.36H166.648C176.088 160.36 179.928 157.08 179.928 149C179.928 141.4 176.488 137.88 168.968 137.88H157.928V127.08H172.168C186.008 127.08 193.288 134.28 193.288 147.8C193.288 162.76 184.568 171 168.808 171ZM217.104 171H203.744V137.88H198.944V127.08H217.104V171ZM231.986 171.56C229.666 171.56 227.346 171.24 225.186 170.68V160.44C226.626 160.68 227.586 160.76 228.626 160.76C233.026 160.76 234.706 158.52 234.706 152.76V137.88H225.106V127.08H260.146C270.226 127.08 275.826 133.08 275.826 143.88V171H262.626V144.12C262.626 140.04 260.546 137.88 256.706 137.88H247.906V154.76C247.906 165.96 242.626 171.56 231.986 171.56ZM325.797 171H312.597V144.12C312.597 140.04 310.517 137.88 306.597 137.88H284.197V127.08H310.117C320.197 127.08 325.797 133.08 325.797 143.88V171ZM297.397 171H284.197V148.68H297.397V171ZM360.677 172.12C344.997 172.12 334.197 162.6 334.197 146.76V127.08H346.677V144.92C346.677 146.28 346.757 147.56 346.997 148.76C352.757 147.56 355.317 143.96 355.317 137.24V127.08H367.477V137.72C367.477 148.6 362.277 154.28 350.357 156.76C352.837 159.8 356.597 161.48 360.997 161.48C370.037 161.48 376.117 154.6 376.117 144.12V127.08H388.597V145.48C388.597 161.32 377.397 172.12 360.677 172.12ZM255.307 253.16H241.947V209.88H237.147V199.08H255.307V253.16ZM281.309 227.88H268.109V209.88H263.309V199.08H281.309V227.88ZM317.325 243.8C315.245 243.8 313.645 243.64 312.205 243.24V232.44C313.485 232.68 314.925 232.76 315.965 232.76C322.845 232.76 326.205 228.92 326.205 221.08C326.205 213.64 323.165 209.32 317.965 209.32C314.845 209.32 312.365 210.84 310.605 213.8C308.605 217.16 307.725 221.24 306.045 234.92L305.005 243.32H291.885C292.525 235.88 293.805 227.08 295.965 214.12L287.725 199.08H302.765L306.205 204.84C309.645 200.52 314.045 198.52 319.965 198.52C332.125 198.52 339.325 206.68 339.325 220.44C339.325 235.24 331.245 243.8 317.325 243.8ZM357.769 243H343.929C344.489 239.88 344.969 236.76 345.849 233.4C348.249 223.88 351.209 220.68 357.049 218.12L342.969 199.08H358.409L370.569 215.48C374.249 213.56 374.729 210.28 375.449 205.48L376.329 199.08H389.849C389.529 201.08 389.129 203.64 388.569 206.28C386.489 216.2 383.129 220.44 375.689 222.44L390.969 243H375.529L362.489 225.48C360.089 227.56 359.769 230.76 359.129 234.36C358.569 237.4 358.169 239.96 357.769 243Z" fill="#E3F0FA"/>
</svg>
