<svg width="65" height="325" viewBox="0 0 65 325" fill="none" xmlns="http://www.w3.org/2000/svg">
<path d="M-15.6645 280.874L-14.329 275.061C-14.329 273.211 -13.7948 271.89 -13.5277 271.626C-8.71987 260.264 -2.04235 253.13 9.9772 248.638C12.6482 246.789 15.3192 246.525 17.456 245.996C17.9902 245.468 18.2573 245.468 19.5928 245.468C20.127 245.468 20.3941 245.996 20.9283 245.468C43.0977 244.675 55.1173 255.244 61.7948 271.362C63.6645 274.533 65 279.817 65 285.366C65 289.858 64.1987 294.085 62.8632 297.785C59.3909 307.033 49.5081 318.394 37.4886 323.415C36.1531 323.943 34.0163 324.207 32.9479 324.207C31.6124 324.207 30.2769 325 27.6059 325C11.5798 325 11.5798 323.679 7.57329 321.565C-6.31596 313.638 -10.3225 309.675 -15.1303 295.142C-15.9316 292.5 -17 289.065 -17 285.894C-17 284.045 -17 281.931 -16.1987 280.61L-15.6645 280.874ZM1.42997 208.74C-0.439739 206.626 -0.439741 202.663 -0.706841 197.642L-12.9935 90.6302C-14.329 78.2115 -15.1303 71.6058 -15.1303 55.7521V12.683C-15.1303 6.34156 -11.9251 2.37815 -4.44625 1.05701C-3.64495 0.528555 -2.57655 0.528555 -0.973942 0.528555C-0.172638 1.05701 0.895765 1.05701 1.69707 0.528555H31.6124C33.7492 0.528555 36.4202 0.528555 38.8241 9.98478e-05C41.4951 9.98478e-05 44.1661 9.98478e-05 45.5016 0.528555H49.5081L55.3844 1.84969C58.8567 2.37815 61.2606 5.28465 61.5277 11.0977V62.0936C61.5277 68.1708 60.9935 74.7765 60.1922 81.118L47.6384 195.264C47.1042 200.549 47.1042 205.305 44.9674 207.947C44.1661 208.74 42.8306 209.797 40.9609 210.061C39.6254 210.061 38.2899 210.59 36.9544 210.061H10.7785C7.30619 210.061 3.29967 210.061 1.42997 208.211V208.74Z" fill="#FF9000"/>
</svg>
