<svg width="9" height="35" viewBox="0 0 9 35" fill="none" xmlns="http://www.w3.org/2000/svg">
<path d="M0.14658 30.248L0.29316 29.622C0.29316 29.4228 0.351792 29.2805 0.381107 29.252C0.908795 28.0285 1.64169 27.2602 2.96091 26.7764C3.25407 26.5772 3.54723 26.5488 3.78176 26.4919C3.84039 26.435 3.86971 26.435 4.01629 26.435C4.07492 26.435 4.10423 26.4919 4.16287 26.435C6.59609 26.3496 7.91531 27.4878 8.64821 29.2236C8.85342 29.5651 9 30.1342 9 30.7317C9 31.2155 8.91205 31.6707 8.76547 32.0691C8.38436 33.0651 7.29967 34.2886 5.98046 34.8293C5.83388 34.8862 5.59935 34.9146 5.48208 34.9146C5.33551 34.9146 5.18892 35 4.89577 35C3.13681 35 3.13681 34.8577 2.69707 34.6301C1.17264 33.7764 0.732899 33.3496 0.205212 31.7846C0.117264 31.5 0 31.1301 0 30.7886C0 30.5894 0 30.3618 0.0879479 30.2195L0.14658 30.248ZM2.0228 22.4797C1.81759 22.252 1.81759 21.8252 1.78827 21.2846L0.439739 9.76017C0.29316 8.42278 0.205212 7.71139 0.205212 6.00408V1.36586C0.205212 0.682938 0.557003 0.256108 1.37785 0.113832C1.4658 0.0569213 1.58306 0.0569213 1.75896 0.0569213C1.84691 0.113832 1.96417 0.113832 2.05212 0.0569213H5.3355C5.57003 0.0569213 5.86319 0.0569213 6.12704 1.07528e-05C6.4202 1.07528e-05 6.71335 1.07528e-05 6.85993 0.0569213H7.29967L7.94463 0.199198C8.32573 0.256108 8.58958 0.569116 8.61889 1.19513V6.687C8.61889 7.34147 8.56026 8.05286 8.47231 8.73578L7.09446 21.0285C7.03583 21.5976 7.03583 22.1098 6.8013 22.3943C6.71336 22.4797 6.56678 22.5935 6.36156 22.622C6.21498 22.622 6.0684 22.6789 5.92182 22.622H3.04886C2.66775 22.622 2.22801 22.622 2.0228 22.4228V22.4797Z" fill="#FF9000"/>
</svg>
