<svg width="393" height="227" viewBox="0 0 393 227" fill="none" xmlns="http://www.w3.org/2000/svg">
<path d="M196.027 170.2C199.335 170.2 202.131 169.058 204.414 166.774C206.698 164.491 207.84 161.695 207.84 158.387C207.84 155.08 206.698 152.284 204.414 150.001C202.131 147.717 199.335 146.575 196.027 146.575C192.72 146.575 189.924 147.717 187.641 150.001C185.357 152.284 184.215 155.08 184.215 158.387C184.215 161.695 185.357 164.491 187.641 166.774C189.924 169.058 192.72 170.2 196.027 170.2ZM187.522 133.817H205.005C205.005 128.62 205.596 124.525 206.777 121.533C207.958 118.54 211.305 114.445 216.817 109.247C220.912 105.152 224.141 101.254 226.504 97.5531C228.866 93.8519 230.048 89.4025 230.048 84.205C230.048 75.385 226.819 68.6125 220.361 63.8875C213.904 59.1625 206.265 56.8 197.445 56.8C188.467 56.8 181.183 59.1625 175.592 63.8875C170.001 68.6125 166.103 74.2825 163.897 80.8975L179.49 87.04C180.277 84.205 182.049 81.1338 184.806 77.8262C187.562 74.5187 191.775 72.865 197.445 72.865C202.485 72.865 206.265 74.2431 208.785 76.9994C211.305 79.7556 212.565 82.7875 212.565 86.095C212.565 89.245 211.62 92.1981 209.73 94.9544C207.84 97.7106 205.478 100.27 202.643 102.632C195.713 108.775 191.46 113.421 189.885 116.571C188.31 119.721 187.522 125.47 187.522 133.817ZM196.5 208C183.427 208 171.143 205.519 159.645 200.558C148.147 195.597 138.146 188.864 129.641 180.359C121.136 171.854 114.403 161.852 109.442 150.355C104.481 138.857 102 126.573 102 113.5C102 100.427 104.481 88.1425 109.442 76.645C114.403 65.1475 121.136 55.1462 129.641 46.6413C138.146 38.1362 148.147 31.4031 159.645 26.4419C171.143 21.4806 183.427 19 196.5 19C209.573 19 221.857 21.4806 233.355 26.4419C244.852 31.4031 254.854 38.1362 263.359 46.6413C271.864 55.1462 278.597 65.1475 283.558 76.645C288.519 88.1425 291 100.427 291 113.5C291 126.573 288.519 138.857 283.558 150.355C278.597 161.852 271.864 171.854 263.359 180.359C254.854 188.864 244.852 195.597 233.355 200.558C221.857 205.519 209.573 208 196.5 208ZM196.5 189.1C217.605 189.1 235.481 181.776 250.129 167.129C264.776 152.481 272.1 134.605 272.1 113.5C272.1 92.395 264.776 74.5187 250.129 59.8713C235.481 45.2237 217.605 37.9 196.5 37.9C175.395 37.9 157.519 45.2237 142.871 59.8713C128.224 74.5187 120.9 92.395 120.9 113.5C120.9 134.605 128.224 152.481 142.871 167.129C157.519 181.776 175.395 189.1 196.5 189.1Z" fill="#FF9000"/>
</svg>
