<svg width="372" height="392" viewBox="0 0 372 392" fill="none" xmlns="http://www.w3.org/2000/svg">
<rect x="1.5" y="1.5" width="369" height="389" rx="31" stroke="white" stroke-width="3" stroke-dasharray="4 4"/>
<path d="M133.559 188.192C132.759 188.192 131.959 188.096 131.287 187.904V184.864C131.991 184.992 132.311 185.024 132.727 185.024C134.423 185.024 135.127 184.192 135.127 182.112V174.208H131.287V171.008H144.119C147.895 171.008 149.975 173.248 149.975 177.408V188H146.167V177.504C146.167 175.296 145.175 174.208 143.255 174.208H138.903V182.592C138.903 186.336 137.143 188.192 133.559 188.192ZM159.711 188H154.687V184.832H158.975C163.807 184.832 165.951 183.392 165.951 179.04C165.951 175.296 164.351 173.76 161.343 173.76C158.623 173.76 157.119 175.008 157.119 176.896C157.119 178.464 158.207 179.328 159.583 179.488V182.624C157.535 182.656 153.471 181.472 153.471 177.056C153.471 173.12 156.671 170.528 161.631 170.528C166.783 170.528 169.663 173.344 169.663 178.752C169.663 184.768 166.207 188 159.711 188ZM181.489 188.416C176.625 188.416 173.457 185.056 173.457 179.872V171.008H181.905C186.769 171.008 189.873 174.272 189.873 179.424C189.873 184.8 186.513 188.416 181.489 188.416ZM181.617 185.184C184.305 185.184 186.097 182.976 186.097 179.648C186.097 176.32 184.337 174.208 181.521 174.208H177.265V179.68C177.265 183.04 178.961 185.184 181.617 185.184ZM198.645 188H194.805V174.208H192.853V171.008H198.645V188ZM218.439 188H214.631V177.504C214.631 175.328 213.639 174.208 211.687 174.208H203.367V171.008H212.583C216.359 171.008 218.439 173.28 218.439 177.408V188ZM207.175 188H203.367V179.136H207.175V188ZM240.166 180.288V187.168L237.094 187.136V180.288H230.214V177.344H237.094V170.464H240.166V177.344H247.046V180.288H240.166ZM108.174 220H104.366V209.504C104.366 207.328 103.374 206.208 101.422 206.208H93.1016V203.008H102.318C106.094 203.008 108.174 205.28 108.174 209.408V220ZM96.9096 220H93.1016V211.136H96.9096V220ZM123.514 220H119.578L124.474 206.208H112.474V203.008H128.506V206.112L123.514 220ZM116.442 224.16H112.666V211.136H116.442V224.16ZM137.47 213.984H133.662V206.208H131.71V203.008H137.47V213.984ZM153.005 220H149.197V206.208H140.845V203.008H156.621V206.208H153.005V220ZM174.569 220H159.273V216.8H168.105V209.504C168.105 207.424 167.209 206.208 165.193 206.208H159.433V203.008H166.057C169.897 203.008 171.913 205.28 171.913 209.408V216.8H174.569V220ZM183.06 220H179.06L184.5 206.208H175.508V197.216H179.284V203.008H188.564V205.984L183.06 220ZM214.361 220H210.553V209.504C210.553 207.328 209.561 206.208 207.609 206.208H199.289V203.008H208.505C212.281 203.008 214.361 205.28 214.361 209.408V220ZM203.097 220H199.289V211.136H203.097V220ZM220.965 220.128H217.925V216.896H220.197C221.637 216.896 222.373 216.16 222.373 214.656V206.208H218.373V203.008H226.149V214.816C226.149 218.208 224.325 220.128 220.965 220.128ZM235.661 220H231.821V206.208H229.869V203.008H235.661V220ZM249.76 220.416C249.024 220.416 248.448 220.352 247.84 220.192V216.992C248.288 217.088 248.896 217.152 249.504 217.152C252.576 217.152 254.144 215.264 254.144 211.52C254.144 207.936 252.64 205.824 250.112 205.824C248.16 205.824 246.784 207.136 246.016 209.824C245.504 211.2 245.152 213.312 244.736 216.896L244.384 220.192H240.64C240.8 217.44 241.568 212.128 242.208 208.896L239.04 203.008H243.264L244.8 205.632C246.144 203.648 248.064 202.656 250.592 202.656C255.168 202.656 257.888 205.888 257.888 211.2C257.888 216.992 254.848 220.416 249.76 220.416ZM262.731 220.192C261.931 220.192 261.131 220.096 260.459 219.904V216.864C261.163 216.992 261.483 217.024 261.899 217.024C263.595 217.024 264.299 216.192 264.299 214.112V206.208H260.459V203.008H273.291C277.067 203.008 279.147 205.248 279.147 209.408V220H275.339V209.504C275.339 207.296 274.347 206.208 272.427 206.208H268.075V214.592C268.075 218.336 266.315 220.192 262.731 220.192Z" fill="white"/>
</svg>
